<svg width="119" height="25" viewBox="0 0 119 25" fill="none" xmlns="http://www.w3.org/2000/svg">
<path d="M7 1C3.68629 1 1 3.68629 1 7V18C1 21.3137 3.68629 24 7 24H70.5V1H7Z" fill="#1C3E78"/>
<path d="M112.5 24C115.814 24 118.5 21.3137 118.5 18V7C118.5 3.68629 115.814 1 112.5 1H70.5V24H112.5Z" fill="#62236A"/>
<path d="M118 7V18H119V7H118ZM1.5 18V7H0.5V18H1.5ZM7 1.5H70.5V0.5H7V1.5ZM70.5 1.5H112.5V0.5H70.5V1.5ZM112.5 23.5H70.5V24.5H112.5V23.5ZM70.5 23.5H7V24.5H70.5V23.5ZM70 1V24H71V1H70ZM0.5 18C0.5 21.5899 3.41015 24.5 7 24.5V23.5C3.96244 23.5 1.5 21.0376 1.5 18H0.5ZM118 18C118 21.0376 115.538 23.5 112.5 23.5V24.5C116.09 24.5 119 21.5899 119 18H118ZM119 7C119 3.41015 116.09 0.5 112.5 0.5V1.5C115.538 1.5 118 3.96243 118 7H119ZM1.5 7C1.5 3.96243 3.96243 1.5 7 1.5V0.5C3.41015 0.5 0.5 3.41015 0.5 7H1.5Z" fill="black"/>
<path d="M84.0625 17.6293C83.367 17.6293 82.7745 17.44 82.2852 17.0614C81.7958 16.6798 81.4219 16.1274 81.1634 15.4041C80.9048 14.6778 80.7756 13.8007 80.7756 12.7727C80.7756 11.7509 80.9048 10.8784 81.1634 10.1552C81.425 9.42886 81.8004 8.87488 82.2898 8.49325C82.7822 8.10855 83.3731 7.91619 84.0625 7.91619C84.7519 7.91619 85.3413 8.10855 85.8306 8.49325C86.323 8.87488 86.6985 9.42886 86.957 10.1552C87.2186 10.8784 87.3494 11.7509 87.3494 12.7727C87.3494 13.8007 87.2202 14.6778 86.9616 15.4041C86.7031 16.1274 86.3292 16.6798 85.8398 17.0614C85.3505 17.44 84.758 17.6293 84.0625 17.6293ZM84.0625 16.6136C84.7519 16.6136 85.2874 16.2812 85.669 15.6165C86.0507 14.9517 86.2415 14.0038 86.2415 12.7727C86.2415 11.9541 86.1538 11.257 85.9783 10.6815C85.806 10.1059 85.5567 9.66738 85.2305 9.36577C84.9073 9.06416 84.518 8.91335 84.0625 8.91335C83.3793 8.91335 82.8453 9.25035 82.4606 9.92436C82.0759 10.5953 81.8835 11.5447 81.8835 12.7727C81.8835 13.5914 81.9697 14.2869 82.142 14.8594C82.3144 15.4318 82.5621 15.8673 82.8853 16.1658C83.2115 16.4644 83.6039 16.6136 84.0625 16.6136ZM89.5861 17.5739C89.3584 17.5739 89.1629 17.4923 88.9998 17.3292C88.8367 17.1661 88.7551 16.9706 88.7551 16.7429C88.7551 16.5152 88.8367 16.3197 88.9998 16.1566C89.1629 15.9935 89.3584 15.9119 89.5861 15.9119C89.8139 15.9119 90.0093 15.9935 90.1724 16.1566C90.3355 16.3197 90.4171 16.5152 90.4171 16.7429C90.4171 16.8937 90.3786 17.0322 90.3017 17.1584C90.2278 17.2846 90.1278 17.3861 90.0016 17.4631C89.8785 17.5369 89.74 17.5739 89.5861 17.5739ZM95.1074 17.6293C94.4119 17.6293 93.8194 17.44 93.3301 17.0614C92.8407 16.6798 92.4668 16.1274 92.2083 15.4041C91.9498 14.6778 91.8205 13.8007 91.8205 12.7727C91.8205 11.7509 91.9498 10.8784 92.2083 10.1552C92.4699 9.42886 92.8453 8.87488 93.3347 8.49325C93.8271 8.10855 94.418 7.91619 95.1074 7.91619C95.7968 7.91619 96.3862 8.10855 96.8755 8.49325C97.368 8.87488 97.7434 9.42886 98.002 10.1552C98.2636 10.8784 98.3944 11.7509 98.3944 12.7727C98.3944 13.8007 98.2651 14.6778 98.0066 15.4041C97.748 16.1274 97.3741 16.6798 96.8848 17.0614C96.3954 17.44 95.803 17.6293 95.1074 17.6293ZM95.1074 16.6136C95.7968 16.6136 96.3323 16.2812 96.714 15.6165C97.0956 14.9517 97.2864 14.0038 97.2864 12.7727C97.2864 11.9541 97.1987 11.257 97.0233 10.6815C96.8509 10.1059 96.6016 9.66738 96.2754 9.36577C95.9522 9.06416 95.5629 8.91335 95.1074 8.91335C94.4242 8.91335 93.8902 9.25035 93.5055 9.92436C93.1208 10.5953 92.9284 11.5447 92.9284 12.7727C92.9284 13.5914 93.0146 14.2869 93.187 14.8594C93.3593 15.4318 93.6071 15.8673 93.9302 16.1658C94.2565 16.4644 94.6489 16.6136 95.1074 16.6136ZM100.631 17.5739C100.403 17.5739 100.208 17.4923 100.045 17.3292C99.8816 17.1661 99.8001 16.9706 99.8001 16.7429C99.8001 16.5152 99.8816 16.3197 100.045 16.1566C100.208 15.9935 100.403 15.9119 100.631 15.9119C100.859 15.9119 101.054 15.9935 101.217 16.1566C101.38 16.3197 101.462 16.5152 101.462 16.7429C101.462 16.8937 101.424 17.0322 101.347 17.1584C101.273 17.2846 101.173 17.3861 101.047 17.4631C100.923 17.5369 100.785 17.5739 100.631 17.5739ZM105.593 8.04545V17.5H104.448V9.24574H104.392L102.084 10.7784V9.61506L104.448 8.04545H105.593Z" fill="white"/>
<path d="M11.1449 7.54545H12.5114L15.7244 15.3935H15.8352L19.0483 7.54545H20.4148V17H19.3438V9.81676H19.2514L16.2969 17H15.2628L12.3082 9.81676H12.2159V17H11.1449V7.54545ZM21.8978 7.54545H23.2089L25.8311 11.9588H25.9419L28.564 7.54545H29.8751L26.4589 13.1037V17H25.314V13.1037L21.8978 7.54545ZM40.1825 9.90909C40.1271 9.44129 39.9025 9.07812 39.5085 8.8196C39.1146 8.56108 38.6314 8.43182 38.0589 8.43182C37.6404 8.43182 37.2741 8.49953 36.9602 8.63494C36.6494 8.77036 36.4063 8.95656 36.2308 9.19354C36.0585 9.43052 35.9723 9.69981 35.9723 10.0014C35.9723 10.2538 36.0323 10.4708 36.1523 10.6523C36.2754 10.8308 36.4324 10.9801 36.6232 11.1001C36.814 11.2171 37.0141 11.314 37.2234 11.391C37.4326 11.4648 37.625 11.5249 37.8004 11.571L38.7607 11.8295C39.0069 11.8942 39.2808 11.9834 39.5824 12.0973C39.8871 12.2112 40.1779 12.3666 40.4549 12.5636C40.735 12.7575 40.9658 13.0067 41.1474 13.3114C41.329 13.6161 41.4197 13.9901 41.4197 14.4332C41.4197 14.9441 41.2859 15.4058 41.0181 15.8182C40.7534 16.2306 40.3656 16.5584 39.8548 16.8015C39.3469 17.0446 38.7299 17.1662 38.0036 17.1662C37.3265 17.1662 36.7402 17.0569 36.2447 16.8384C35.7522 16.6199 35.3645 16.3152 35.0813 15.9244C34.8013 15.5335 34.6428 15.0795 34.6058 14.5625H35.7876C35.8184 14.9195 35.9384 15.215 36.1477 15.4489C36.3601 15.6797 36.6278 15.852 36.951 15.9659C37.2772 16.0767 37.6281 16.1321 38.0036 16.1321C38.4406 16.1321 38.833 16.0613 39.1808 15.9197C39.5285 15.7751 39.804 15.575 40.0071 15.3196C40.2102 15.0611 40.3118 14.7595 40.3118 14.4148C40.3118 14.1009 40.2241 13.8454 40.0487 13.6484C39.8732 13.4515 39.6424 13.2914 39.3562 13.1683C39.07 13.0452 38.7607 12.9375 38.4283 12.8452L37.2649 12.5128C36.5263 12.3004 35.9415 11.9973 35.5107 11.6033C35.0798 11.2094 34.8643 10.6939 34.8643 10.0568C34.8643 9.52746 35.0075 9.06581 35.2937 8.67188C35.583 8.27486 35.9708 7.96709 36.457 7.74858C36.9464 7.52699 37.4927 7.41619 38.0959 7.41619C38.7053 7.41619 39.2469 7.52545 39.7209 7.74396C40.1948 7.9594 40.5703 8.25485 40.8473 8.63033C41.1274 9.0058 41.2751 9.43205 41.2905 9.90909H40.1825ZM44.447 7.54545V17H43.3021V7.54545H44.447ZM46.2255 8.56108V7.54545H53.3164V8.56108H50.3434V17H49.1985V8.56108H46.2255ZM55.0834 17V7.54545H60.7893V8.56108H56.2282V11.7557H60.4939V12.7713H56.2282V15.9844H60.8632V17H55.0834Z" fill="white"/>
</svg>
