<svg width="119" height="24" viewBox="0 0 119 24" fill="none" xmlns="http://www.w3.org/2000/svg">
<path d="M7 0.5C3.68629 0.5 1 3.18629 1 6.5V17.5C1 20.8137 3.68629 23.5 7 23.5H70.5V0.5H7Z" fill="#1C3E78"/>
<path d="M112.5 23.5C115.814 23.5 118.5 20.8137 118.5 17.5V6.5C118.5 3.18629 115.814 0.5 112.5 0.5H70.5V23.5H112.5Z" fill="#62236A"/>
<path d="M118 6.5V17.5H119V6.5H118ZM1.5 17.5V6.5H0.5V17.5H1.5ZM7 1H70.5V0H7V1ZM70.5 1H112.5V0H70.5V1ZM112.5 23H70.5V24H112.5V23ZM70.5 23H7V24H70.5V23ZM70 0.5V23.5H71V0.5H70ZM0.5 17.5C0.5 21.0899 3.41015 24 7 24V23C3.96243 23 1.5 20.5376 1.5 17.5H0.5ZM118 17.5C118 20.5376 115.538 23 112.5 23V24C116.09 24 119 21.0899 119 17.5H118ZM119 6.5C119 2.91015 116.09 0 112.5 0V1C115.538 1 118 3.46243 118 6.5H119ZM1.5 6.5C1.5 3.46243 3.96243 1 7 1V0C3.41015 0 0.5 2.91015 0.5 6.5H1.5Z" fill="black"/>
<path d="M15.642 7.54545V17H14.5341L9.3821 9.5767H9.28977V17H8.14489V7.54545H9.25284L14.4233 14.9872H14.5156V7.54545H15.642ZM17.933 17V7.54545H23.6389V8.56108H19.0779V11.7557H23.3435V12.7713H19.0779V15.9844H23.7128V17H17.933ZM26.2565 7.54545L28.694 11.4787H28.7678L31.2053 7.54545H32.5534L29.5803 12.2727L32.5534 17H31.2053L28.7678 13.1406H28.694L26.2565 17H24.9085L27.9553 12.2727L24.9085 7.54545H26.2565ZM33.5263 8.56108V7.54545H40.6172V8.56108H37.6442V17H36.4993V8.56108H33.5263ZM42.5861 17.0739C42.3584 17.0739 42.1629 16.9923 41.9998 16.8292C41.8367 16.6661 41.7551 16.4706 41.7551 16.2429C41.7551 16.0152 41.8367 15.8197 41.9998 15.6566C42.1629 15.4935 42.3584 15.4119 42.5861 15.4119C42.8139 15.4119 43.0093 15.4935 43.1724 15.6566C43.3355 15.8197 43.4171 16.0152 43.4171 16.2429C43.4171 16.3937 43.3786 16.5322 43.3017 16.6584C43.2278 16.7846 43.1278 16.8861 43.0016 16.9631C42.8785 17.0369 42.74 17.0739 42.5861 17.0739ZM49.1392 7.54545H50.2841V14.304C50.2841 14.9072 50.1733 15.4196 49.9517 15.8413C49.7301 16.2629 49.4177 16.583 49.0146 16.8015C48.6114 17.02 48.1359 17.1293 47.5881 17.1293C47.071 17.1293 46.6109 17.0354 46.2077 16.8477C45.8046 16.6568 45.4876 16.386 45.2567 16.0352C45.0259 15.6843 44.9105 15.2673 44.9105 14.7841H46.0369C46.0369 15.0518 46.1031 15.2857 46.2354 15.4858C46.3709 15.6828 46.5555 15.8366 46.7894 15.9474C47.0233 16.0582 47.2895 16.1136 47.5881 16.1136C47.9174 16.1136 48.1974 16.0444 48.4283 15.9059C48.6591 15.7674 48.8345 15.5643 48.9545 15.2965C49.0777 15.0257 49.1392 14.6948 49.1392 14.304V7.54545ZM57.7489 9.90909C57.6935 9.44129 57.4689 9.07812 57.0749 8.8196C56.681 8.56108 56.1978 8.43182 55.6254 8.43182C55.2068 8.43182 54.8406 8.49953 54.5266 8.63494C54.2158 8.77036 53.9727 8.95656 53.7972 9.19354C53.6249 9.43052 53.5387 9.69981 53.5387 10.0014C53.5387 10.2538 53.5987 10.4708 53.7188 10.6523C53.8419 10.8308 53.9988 10.9801 54.1896 11.1001C54.3804 11.2171 54.5805 11.314 54.7898 11.391C54.9991 11.4648 55.1914 11.5249 55.3668 11.571L56.3271 11.8295C56.5733 11.8942 56.8472 11.9834 57.1488 12.0973C57.4535 12.2112 57.7443 12.3666 58.0213 12.5636C58.3014 12.7575 58.5322 13.0067 58.7138 13.3114C58.8954 13.6161 58.9862 13.9901 58.9862 14.4332C58.9862 14.9441 58.8523 15.4058 58.5845 15.8182C58.3198 16.2306 57.9321 16.5584 57.4212 16.8015C56.9134 17.0446 56.2963 17.1662 55.57 17.1662C54.8929 17.1662 54.3066 17.0569 53.8111 16.8384C53.3187 16.6199 52.9309 16.3152 52.6477 15.9244C52.3677 15.5335 52.2092 15.0795 52.1722 14.5625H53.354C53.3848 14.9195 53.5049 15.215 53.7141 15.4489C53.9265 15.6797 54.1942 15.852 54.5174 15.9659C54.8436 16.0767 55.1945 16.1321 55.57 16.1321C56.007 16.1321 56.3994 16.0613 56.7472 15.9197C57.0949 15.7751 57.3704 15.575 57.5735 15.3196C57.7766 15.0611 57.8782 14.7595 57.8782 14.4148C57.8782 14.1009 57.7905 13.8454 57.6151 13.6484C57.4396 13.4515 57.2088 13.2914 56.9226 13.1683C56.6364 13.0452 56.3271 12.9375 55.9947 12.8452L54.8313 12.5128C54.0927 12.3004 53.5079 11.9973 53.0771 11.6033C52.6462 11.2094 52.4308 10.6939 52.4308 10.0568C52.4308 9.52746 52.5739 9.06581 52.8601 8.67188C53.1494 8.27486 53.5372 7.96709 54.0234 7.74858C54.5128 7.52699 55.0591 7.41619 55.6623 7.41619C56.2717 7.41619 56.8133 7.52545 57.2873 7.74396C57.7612 7.9594 58.1367 8.25485 58.4137 8.63033C58.6938 9.0058 58.8415 9.43205 58.8569 9.90909H57.7489Z" fill="white"/>
<path d="M78.3026 7.54545V17H77.1577V8.74574H77.1023L74.794 10.2784V9.11506L77.1577 7.54545H78.3026ZM81.0217 17V16.169L84.1424 12.7528C84.5086 12.3527 84.8103 12.005 85.0472 11.7095C85.2842 11.411 85.4596 11.1309 85.5735 10.8693C85.6905 10.6046 85.7489 10.3277 85.7489 10.0384C85.7489 9.70597 85.6689 9.41821 85.5089 9.17507C85.3519 8.93194 85.1365 8.7442 84.8626 8.61186C84.5887 8.47952 84.2809 8.41335 83.9393 8.41335C83.5761 8.41335 83.2591 8.48875 82.9883 8.63956C82.7205 8.78729 82.5128 8.99503 82.3651 9.26278C82.2204 9.53054 82.1481 9.84446 82.1481 10.2045H81.0586C81.0586 9.65057 81.1863 9.1643 81.4418 8.74574C81.6972 8.32718 82.045 8.00095 82.4851 7.76704C82.9283 7.53314 83.4253 7.41619 83.9762 7.41619C84.5302 7.41619 85.0211 7.53314 85.4489 7.76704C85.8767 8.00095 86.2121 8.31641 86.4553 8.71342C86.6984 9.11044 86.82 9.55208 86.82 10.0384C86.82 10.3861 86.7569 10.7262 86.6307 11.0586C86.5076 11.3879 86.2921 11.7557 85.9844 12.1619C85.6797 12.5651 85.2565 13.0575 84.7148 13.6392L82.5913 15.9105V15.9844H86.9862V17H81.0217ZM89.7053 17.0739C89.4775 17.0739 89.2821 16.9923 89.119 16.8292C88.9558 16.6661 88.8743 16.4706 88.8743 16.2429C88.8743 16.0152 88.9558 15.8197 89.119 15.6566C89.2821 15.4935 89.4775 15.4119 89.7053 15.4119C89.933 15.4119 90.1284 15.4935 90.2915 15.6566C90.4547 15.8197 90.5362 16.0152 90.5362 16.2429C90.5362 16.3937 90.4978 16.5322 90.4208 16.6584C90.3469 16.7846 90.2469 16.8861 90.1207 16.9631C89.9976 17.0369 89.8591 17.0739 89.7053 17.0739ZM92.4728 17V16.169L95.5936 12.7528C95.9598 12.3527 96.2614 12.005 96.4984 11.7095C96.7354 11.411 96.9108 11.1309 97.0247 10.8693C97.1416 10.6046 97.2001 10.3277 97.2001 10.0384C97.2001 9.70597 97.1201 9.41821 96.96 9.17507C96.8031 8.93194 96.5877 8.7442 96.3137 8.61186C96.0398 8.47952 95.7321 8.41335 95.3904 8.41335C95.0273 8.41335 94.7103 8.48875 94.4395 8.63956C94.1717 8.78729 93.964 8.99503 93.8162 9.26278C93.6716 9.53054 93.5993 9.84446 93.5993 10.2045H92.5098C92.5098 9.65057 92.6375 9.1643 92.8929 8.74574C93.1484 8.32718 93.4962 8.00095 93.9363 7.76704C94.3794 7.53314 94.8765 7.41619 95.4274 7.41619C95.9814 7.41619 96.4722 7.53314 96.9 7.76704C97.3278 8.00095 97.6633 8.31641 97.9064 8.71342C98.1496 9.11044 98.2711 9.55208 98.2711 10.0384C98.2711 10.3861 98.208 10.7262 98.0819 11.0586C97.9587 11.3879 97.7433 11.7557 97.4355 12.1619C97.1309 12.5651 96.7077 13.0575 96.166 13.6392L94.0424 15.9105V15.9844H98.4373V17H92.4728ZM101.156 17.0739C100.929 17.0739 100.733 16.9923 100.57 16.8292C100.407 16.6661 100.325 16.4706 100.325 16.2429C100.325 16.0152 100.407 15.8197 100.57 15.6566C100.733 15.4935 100.929 15.4119 101.156 15.4119C101.384 15.4119 101.58 15.4935 101.743 15.6566C101.906 15.8197 101.987 16.0152 101.987 16.2429C101.987 16.3937 101.949 16.5322 101.872 16.6584C101.798 16.7846 101.698 16.8861 101.572 16.9631C101.449 17.0369 101.31 17.0739 101.156 17.0739ZM106.688 17.1293C106.146 17.1293 105.659 17.0215 105.225 16.8061C104.791 16.5907 104.443 16.2952 104.181 15.9197C103.92 15.5443 103.777 15.1165 103.752 14.6364H104.86C104.903 15.0642 105.097 15.4181 105.442 15.6982C105.789 15.9751 106.205 16.1136 106.688 16.1136C107.076 16.1136 107.421 16.0228 107.722 15.8413C108.027 15.6597 108.265 15.4104 108.438 15.0934C108.613 14.7733 108.701 14.4117 108.701 14.0085C108.701 13.5961 108.61 13.2283 108.429 12.9052C108.25 12.579 108.004 12.322 107.69 12.1342C107.376 11.9465 107.017 11.8511 106.614 11.848C106.325 11.8449 106.028 11.8896 105.723 11.9819C105.419 12.0711 105.168 12.1866 104.971 12.3281L103.9 12.1989L104.472 7.54545H109.384V8.56108H105.432L105.1 11.3494H105.155C105.349 11.1955 105.592 11.0678 105.885 10.9663C106.177 10.8647 106.482 10.8139 106.799 10.8139C107.378 10.8139 107.893 10.9524 108.345 11.2294C108.801 11.5033 109.158 11.8788 109.416 12.3558C109.678 12.8329 109.809 13.3776 109.809 13.9901C109.809 14.5933 109.673 15.1319 109.403 15.6058C109.135 16.0767 108.766 16.4491 108.295 16.723C107.824 16.9938 107.288 17.1293 106.688 17.1293Z" fill="white"/>
</svg>
