<svg width="119" height="25" viewBox="0 0 119 25" fill="none" xmlns="http://www.w3.org/2000/svg">
<path d="M7 1C3.68629 1 1 3.68629 1 7V18C1 21.3137 3.68629 24 7 24H70.5V1H7Z" fill="#1C3E78"/>
<path d="M112.5 24C115.814 24 118.5 21.3137 118.5 18V7C118.5 3.68629 115.814 1 112.5 1H70.5V24H112.5Z" fill="#62236A"/>
<path d="M118 7V18H119V7H118ZM1.5 18V7H0.5V18H1.5ZM7 1.5H70.5V0.5H7V1.5ZM70.5 1.5H112.5V0.5H70.5V1.5ZM112.5 23.5H70.5V24.5H112.5V23.5ZM70.5 23.5H7V24.5H70.5V23.5ZM70 1V24H71V1H70ZM0.5 18C0.5 21.5899 3.41015 24.5 7 24.5V23.5C3.96243 23.5 1.5 21.0376 1.5 18H0.5ZM118 18C118 21.0376 115.538 23.5 112.5 23.5V24.5C116.09 24.5 119 21.5899 119 18H118ZM119 7C119 3.41015 116.09 0.5 112.5 0.5V1.5C115.538 1.5 118 3.96243 118 7H119ZM1.5 7C1.5 3.96243 3.96243 1.5 7 1.5V0.5C3.41015 0.5 0.5 3.41015 0.5 7H1.5Z" fill="black"/>
<path d="M15.642 8.04545V17.5H14.5341L9.3821 10.0767H9.28977V17.5H8.14489V8.04545H9.25284L14.4233 15.4872H14.5156V8.04545H15.642ZM25.9102 12.7727C25.9102 13.7699 25.7302 14.6316 25.3701 15.358C25.01 16.0843 24.5161 16.6444 23.8882 17.0384C23.2604 17.4323 22.5433 17.6293 21.7369 17.6293C20.9306 17.6293 20.2135 17.4323 19.5857 17.0384C18.9578 16.6444 18.4639 16.0843 18.1038 15.358C17.7437 14.6316 17.5637 13.7699 17.5637 12.7727C17.5637 11.7756 17.7437 10.9138 18.1038 10.1875C18.4639 9.46117 18.9578 8.90104 19.5857 8.5071C20.2135 8.11316 20.9306 7.91619 21.7369 7.91619C22.5433 7.91619 23.2604 8.11316 23.8882 8.5071C24.5161 8.90104 25.01 9.46117 25.3701 10.1875C25.7302 10.9138 25.9102 11.7756 25.9102 12.7727ZM24.8023 12.7727C24.8023 11.9541 24.6653 11.2631 24.3914 10.6999C24.1206 10.1367 23.7528 9.71046 23.2881 9.42116C22.8264 9.13187 22.3094 8.98722 21.7369 8.98722C21.1645 8.98722 20.6459 9.13187 20.1812 9.42116C19.7195 9.71046 19.3518 10.1367 19.0779 10.6999C18.807 11.2631 18.6716 11.9541 18.6716 12.7727C18.6716 13.5914 18.807 14.2823 19.0779 14.8455C19.3518 15.4087 19.7195 15.835 20.1812 16.1243C20.6459 16.4136 21.1645 16.5582 21.7369 16.5582C22.3094 16.5582 22.8264 16.4136 23.2881 16.1243C23.7528 15.835 24.1206 15.4087 24.3914 14.8455C24.6653 14.2823 24.8023 13.5914 24.8023 12.7727ZM35.8126 12.7727C35.8126 13.7699 35.6325 14.6316 35.2725 15.358C34.9124 16.0843 34.4184 16.6444 33.7906 17.0384C33.1627 17.4323 32.4456 17.6293 31.6393 17.6293C30.8329 17.6293 30.1159 17.4323 29.488 17.0384C28.8602 16.6444 28.3662 16.0843 28.0061 15.358C27.646 14.6316 27.466 13.7699 27.466 12.7727C27.466 11.7756 27.646 10.9138 28.0061 10.1875C28.3662 9.46117 28.8602 8.90104 29.488 8.5071C30.1159 8.11316 30.8329 7.91619 31.6393 7.91619C32.4456 7.91619 33.1627 8.11316 33.7906 8.5071C34.4184 8.90104 34.9124 9.46117 35.2725 10.1875C35.6325 10.9138 35.8126 11.7756 35.8126 12.7727ZM34.7046 12.7727C34.7046 11.9541 34.5677 11.2631 34.2938 10.6999C34.0229 10.1367 33.6552 9.71046 33.1904 9.42116C32.7288 9.13187 32.2117 8.98722 31.6393 8.98722C31.0669 8.98722 30.5483 9.13187 30.0835 9.42116C29.6219 9.71046 29.2541 10.1367 28.9802 10.6999C28.7094 11.2631 28.574 11.9541 28.574 12.7727C28.574 13.5914 28.7094 14.2823 28.9802 14.8455C29.2541 15.4087 29.6219 15.835 30.0835 16.1243C30.5483 16.4136 31.0669 16.5582 31.6393 16.5582C32.2117 16.5582 32.7288 16.4136 33.1904 16.1243C33.6552 15.835 34.0229 15.4087 34.2938 14.8455C34.5677 14.2823 34.7046 13.5914 34.7046 12.7727ZM37.7377 17.5V8.04545H38.8825V12.7358H38.9933L43.2405 8.04545H44.7362L40.7661 12.3111L44.7362 17.5H43.3513L40.0644 13.1051L38.8825 14.4347V17.5H37.7377ZM47.363 8.04545V17.5H46.2181V8.04545H47.363ZM49.6586 17.5V8.04545H55.3645V9.06108H50.8034V12.2557H55.0691V13.2713H50.8034V16.4844H55.4384V17.5H49.6586ZM62.5985 10.4091C62.5431 9.94129 62.3185 9.57812 61.9245 9.3196C61.5306 9.06108 61.0474 8.93182 60.475 8.93182C60.0564 8.93182 59.6902 8.99953 59.3762 9.13494C59.0654 9.27036 58.8223 9.45656 58.6468 9.69354C58.4745 9.93052 58.3883 10.1998 58.3883 10.5014C58.3883 10.7538 58.4483 10.9708 58.5684 11.1523C58.6915 11.3308 58.8484 11.4801 59.0392 11.6001C59.2301 11.7171 59.4301 11.814 59.6394 11.891C59.8487 11.9648 60.041 12.0249 60.2164 12.071L61.1767 12.3295C61.4229 12.3942 61.6968 12.4834 61.9984 12.5973C62.3031 12.7112 62.5939 12.8666 62.8709 13.0636C63.151 13.2575 63.3818 13.5067 63.5634 13.8114C63.745 14.1161 63.8358 14.4901 63.8358 14.9332C63.8358 15.4441 63.7019 15.9058 63.4341 16.3182C63.1694 16.7306 62.7817 17.0584 62.2708 17.3015C61.763 17.5446 61.1459 17.6662 60.4196 17.6662C59.7425 17.6662 59.1562 17.5569 58.6607 17.3384C58.1683 17.1199 57.7805 16.8152 57.4973 16.4244C57.2173 16.0335 57.0588 15.5795 57.0218 15.0625H58.2037C58.2344 15.4195 58.3545 15.715 58.5637 15.9489C58.7761 16.1797 59.0439 16.352 59.367 16.4659C59.6932 16.5767 60.0441 16.6321 60.4196 16.6321C60.8566 16.6321 61.249 16.5613 61.5968 16.4197C61.9445 16.2751 62.22 16.075 62.4231 15.8196C62.6262 15.5611 62.7278 15.2595 62.7278 14.9148C62.7278 14.6009 62.6401 14.3454 62.4647 14.1484C62.2892 13.9515 62.0584 13.7914 61.7722 13.6683C61.486 13.5452 61.1767 13.4375 60.8443 13.3452L59.6809 13.0128C58.9423 12.8004 58.3575 12.4973 57.9267 12.1033C57.4958 11.7094 57.2804 11.1939 57.2804 10.5568C57.2804 10.0275 57.4235 9.56581 57.7097 9.17188C57.999 8.77486 58.3868 8.46709 58.873 8.24858C59.3624 8.02699 59.9087 7.91619 60.5119 7.91619C61.1213 7.91619 61.6629 8.02545 62.1369 8.24396C62.6109 8.4594 62.9863 8.75485 63.2633 9.13033C63.5434 9.5058 63.6911 9.93205 63.7065 10.4091H62.5985Z" fill="white"/>
<path d="M79.9787 17V16.169L83.0994 12.7528C83.4657 12.3527 83.7673 12.005 84.0043 11.7095C84.2412 11.411 84.4167 11.1309 84.5305 10.8693C84.6475 10.6046 84.706 10.3277 84.706 10.0384C84.706 9.70597 84.6259 9.41821 84.4659 9.17507C84.3089 8.93194 84.0935 8.7442 83.8196 8.61186C83.5457 8.47952 83.2379 8.41335 82.8963 8.41335C82.5331 8.41335 82.2161 8.48875 81.9453 8.63956C81.6776 8.78729 81.4698 8.99503 81.3221 9.26278C81.1774 9.53054 81.1051 9.84446 81.1051 10.2045H80.0156C80.0156 9.65057 80.1433 9.1643 80.3988 8.74574C80.6542 8.32718 81.002 8.00095 81.4421 7.76704C81.8853 7.53314 82.3823 7.41619 82.9332 7.41619C83.4872 7.41619 83.9781 7.53314 84.4059 7.76704C84.8337 8.00095 85.1692 8.31641 85.4123 8.71342C85.6554 9.11044 85.777 9.55208 85.777 10.0384C85.777 10.3861 85.7139 10.7262 85.5877 11.0586C85.4646 11.3879 85.2492 11.7557 84.9414 12.1619C84.6367 12.5651 84.2135 13.0575 83.6719 13.6392L81.5483 15.9105V15.9844H85.9432V17H79.9787ZM88.6623 17.0739C88.4345 17.0739 88.2391 16.9923 88.076 16.8292C87.9129 16.6661 87.8313 16.4706 87.8313 16.2429C87.8313 16.0152 87.9129 15.8197 88.076 15.6566C88.2391 15.4935 88.4345 15.4119 88.6623 15.4119C88.89 15.4119 89.0855 15.4935 89.2486 15.6566C89.4117 15.8197 89.4933 16.0152 89.4933 16.2429C89.4933 16.3937 89.4548 16.5322 89.3778 16.6584C89.304 16.7846 89.204 16.8861 89.0778 16.9631C88.9547 17.0369 88.8162 17.0739 88.6623 17.0739ZM94.194 17.1293C93.6523 17.1293 93.1645 17.0215 92.7306 16.8061C92.2966 16.5907 91.9488 16.2952 91.6872 15.9197C91.4256 15.5443 91.2825 15.1165 91.2579 14.6364H92.3659C92.4089 15.0642 92.6028 15.4181 92.9475 15.6982C93.2953 15.9751 93.7108 16.1136 94.194 16.1136C94.5818 16.1136 94.9265 16.0228 95.2281 15.8413C95.5328 15.6597 95.7713 15.4104 95.9436 15.0934C96.1191 14.7733 96.2068 14.4117 96.2068 14.0085C96.2068 13.5961 96.116 13.2283 95.9344 12.9052C95.7559 12.579 95.5097 12.322 95.1958 12.1342C94.8818 11.9465 94.5233 11.8511 94.1201 11.848C93.8308 11.8449 93.5338 11.8896 93.2291 11.9819C92.9244 12.0711 92.6736 12.1866 92.4767 12.3281L91.4056 12.1989L91.9781 7.54545H96.89V8.56108H92.9383L92.6059 11.3494H92.6613C92.8552 11.1955 93.0983 11.0678 93.3907 10.9663C93.6831 10.8647 93.9878 10.8139 94.3048 10.8139C94.8834 10.8139 95.3989 10.9524 95.8513 11.2294C96.3068 11.5033 96.6638 11.8788 96.9223 12.3558C97.1839 12.8329 97.3147 13.3776 97.3147 13.9901C97.3147 14.5933 97.1793 15.1319 96.9085 15.6058C96.6407 16.0767 96.2714 16.4491 95.8005 16.723C95.3296 16.9938 94.7941 17.1293 94.194 17.1293ZM99.6056 17.0739C99.3779 17.0739 99.1825 16.9923 99.0194 16.8292C98.8562 16.6661 98.7747 16.4706 98.7747 16.2429C98.7747 16.0152 98.8562 15.8197 99.0194 15.6566C99.1825 15.4935 99.3779 15.4119 99.6056 15.4119C99.8334 15.4119 100.029 15.4935 100.192 15.6566C100.355 15.8197 100.437 16.0152 100.437 16.2429C100.437 16.3937 100.398 16.5322 100.321 16.6584C100.247 16.7846 100.147 16.8861 100.021 16.9631C99.898 17.0369 99.7595 17.0739 99.6056 17.0739ZM102.373 17V16.169L105.494 12.7528C105.86 12.3527 106.162 12.005 106.399 11.7095C106.636 11.411 106.811 11.1309 106.925 10.8693C107.042 10.6046 107.1 10.3277 107.1 10.0384C107.1 9.70597 107.02 9.41821 106.86 9.17507C106.703 8.93194 106.488 8.7442 106.214 8.61186C105.94 8.47952 105.632 8.41335 105.291 8.41335C104.928 8.41335 104.611 8.48875 104.34 8.63956C104.072 8.78729 103.864 8.99503 103.717 9.26278C103.572 9.53054 103.5 9.84446 103.5 10.2045H102.41C102.41 9.65057 102.538 9.1643 102.793 8.74574C103.049 8.32718 103.397 8.00095 103.837 7.76704C104.28 7.53314 104.777 7.41619 105.328 7.41619C105.882 7.41619 106.373 7.53314 106.8 7.76704C107.228 8.00095 107.564 8.31641 107.807 8.71342C108.05 9.11044 108.172 9.55208 108.172 10.0384C108.172 10.3861 108.108 10.7262 107.982 11.0586C107.859 11.3879 107.644 11.7557 107.336 12.1619C107.031 12.5651 106.608 13.0575 106.066 13.6392L103.943 15.9105V15.9844H108.338V17H102.373Z" fill="white"/>
</svg>
