<svg width="119" height="25" viewBox="0 0 119 25" fill="none" xmlns="http://www.w3.org/2000/svg">
<path d="M7 1C3.68629 1 1 3.68629 1 7V18C1 21.3137 3.68629 24 7 24H70.5V1H7Z" fill="#1C3E78"/>
<path d="M112.5 24C115.814 24 118.5 21.3137 118.5 18V7C118.5 3.68629 115.814 1 112.5 1H70.5V24H112.5Z" fill="#62236A"/>
<path d="M118 7V18H119V7H118ZM1.5 18V7H0.5V18H1.5ZM7 1.5H70.5V0.5H7V1.5ZM70.5 1.5H112.5V0.5H70.5V1.5ZM112.5 23.5H70.5V24.5H112.5V23.5ZM70.5 23.5H7V24.5H70.5V23.5ZM70 1V24H71V1H70ZM0.5 18C0.5 21.5899 3.41015 24.5 7 24.5V23.5C3.96243 23.5 1.5 21.0376 1.5 18H0.5ZM118 18C118 21.0376 115.538 23.5 112.5 23.5V24.5C116.09 24.5 119 21.5899 119 18H118ZM119 7C119 3.41015 116.09 0.5 112.5 0.5V1.5C115.538 1.5 118 3.96243 118 7H119ZM1.5 7C1.5 3.96243 3.96243 1.5 7 1.5V0.5C3.41015 0.5 0.5 3.41015 0.5 7H1.5Z" fill="black"/>
<path d="M8.14489 17V7.54545H11.3395C12.0781 7.54545 12.6844 7.67164 13.1584 7.92401C13.6323 8.17329 13.9832 8.51645 14.2109 8.95348C14.4387 9.39051 14.5526 9.88755 14.5526 10.4446C14.5526 11.0017 14.4387 11.4956 14.2109 11.9265C13.9832 12.3574 13.6339 12.6959 13.163 12.9421C12.6921 13.1853 12.0904 13.3068 11.358 13.3068H8.77273V12.2727H11.321C11.8258 12.2727 12.232 12.1989 12.5398 12.0511C12.8506 11.9034 13.0753 11.6941 13.2138 11.4233C13.3554 11.1494 13.4261 10.8232 13.4261 10.4446C13.4261 10.0661 13.3554 9.7352 13.2138 9.45206C13.0722 9.16892 12.846 8.9504 12.5352 8.79652C12.2243 8.63956 11.8134 8.56108 11.3026 8.56108H9.28977V17H8.14489ZM12.5952 12.7528L14.9219 17H13.5923L11.3026 12.7528H12.5952ZM16.4603 17V7.54545H22.1663V8.56108H17.6052V11.7557H21.8708V12.7713H17.6052V15.9844H22.2401V17H16.4603ZM24.6176 17H23.4173L26.8889 7.54545H28.0708L31.5423 17H30.3421L27.5168 9.04119H27.4429L24.6176 17ZM25.0608 13.3068H29.8989V14.3224H25.0608V13.3068ZM40.1786 10.5H39.0337C38.966 10.1707 38.8475 9.88139 38.6783 9.6321C38.5121 9.38281 38.3089 9.17353 38.0689 9.00426C37.8319 8.83191 37.5688 8.70265 37.2795 8.61648C36.9902 8.5303 36.6886 8.48722 36.3746 8.48722C35.8022 8.48722 35.2836 8.63187 34.8189 8.92116C34.3572 9.21046 33.9895 9.63672 33.7156 10.1999C33.4447 10.7631 33.3093 11.4541 33.3093 12.2727C33.3093 13.0914 33.4447 13.7823 33.7156 14.3455C33.9895 14.9087 34.3572 15.335 34.8189 15.6243C35.2836 15.9136 35.8022 16.0582 36.3746 16.0582C36.6886 16.0582 36.9902 16.0152 37.2795 15.929C37.5688 15.8428 37.8319 15.7151 38.0689 15.5458C38.3089 15.3735 38.5121 15.1626 38.6783 14.9134C38.8475 14.661 38.966 14.3717 39.0337 14.0455H40.1786C40.0924 14.5286 39.9355 14.9611 39.7077 15.3427C39.48 15.7243 39.1969 16.049 38.8583 16.3168C38.5198 16.5814 38.1397 16.783 37.718 16.9215C37.2995 17.06 36.8517 17.1293 36.3746 17.1293C35.5683 17.1293 34.8512 16.9323 34.2234 16.5384C33.5955 16.1444 33.1016 15.5843 32.7415 14.858C32.3814 14.1316 32.2013 13.2699 32.2013 12.2727C32.2013 11.2756 32.3814 10.4138 32.7415 9.6875C33.1016 8.96117 33.5955 8.40104 34.2234 8.0071C34.8512 7.61316 35.5683 7.41619 36.3746 7.41619C36.8517 7.41619 37.2995 7.48544 37.718 7.62393C38.1397 7.76243 38.5198 7.96555 38.8583 8.23331C39.1969 8.49799 39.48 8.82114 39.7077 9.20277C39.9355 9.58132 40.0924 10.0137 40.1786 10.5ZM41.5116 8.56108V7.54545H48.6025V8.56108H45.6295V17H44.4846V8.56108H41.5116ZM50.5715 17.0739C50.3437 17.0739 50.1483 16.9923 49.9852 16.8292C49.8221 16.6661 49.7405 16.4706 49.7405 16.2429C49.7405 16.0152 49.8221 15.8197 49.9852 15.6566C50.1483 15.4935 50.3437 15.4119 50.5715 15.4119C50.7992 15.4119 50.9946 15.4935 51.1578 15.6566C51.3209 15.8197 51.4024 16.0152 51.4024 16.2429C51.4024 16.3937 51.364 16.5322 51.287 16.6584C51.2132 16.7846 51.1131 16.8861 50.9869 16.9631C50.8638 17.0369 50.7253 17.0739 50.5715 17.0739ZM57.1246 7.54545H58.2694V14.304C58.2694 14.9072 58.1586 15.4196 57.9371 15.8413C57.7155 16.2629 57.4031 16.583 56.9999 16.8015C56.5967 17.02 56.1212 17.1293 55.5734 17.1293C55.0564 17.1293 54.5963 17.0354 54.1931 16.8477C53.7899 16.6568 53.4729 16.386 53.2421 16.0352C53.0113 15.6843 52.8959 15.2673 52.8959 14.7841H54.0223C54.0223 15.0518 54.0885 15.2857 54.2208 15.4858C54.3562 15.6828 54.5409 15.8366 54.7748 15.9474C55.0087 16.0582 55.2749 16.1136 55.5734 16.1136C55.9027 16.1136 56.1828 16.0444 56.4136 15.9059C56.6444 15.7674 56.8199 15.5643 56.9399 15.2965C57.063 15.0257 57.1246 14.6948 57.1246 14.304V7.54545ZM65.7343 9.90909C65.6789 9.44129 65.4542 9.07812 65.0603 8.8196C64.6663 8.56108 64.1832 8.43182 63.6107 8.43182C63.1921 8.43182 62.8259 8.49953 62.512 8.63494C62.2011 8.77036 61.958 8.95656 61.7826 9.19354C61.6102 9.43052 61.5241 9.69981 61.5241 10.0014C61.5241 10.2538 61.5841 10.4708 61.7041 10.6523C61.8272 10.8308 61.9842 10.9801 62.175 11.1001C62.3658 11.2171 62.5658 11.314 62.7751 11.391C62.9844 11.4648 63.1768 11.5249 63.3522 11.571L64.3124 11.8295C64.5586 11.8942 64.8325 11.9834 65.1341 12.0973C65.4388 12.2112 65.7297 12.3666 66.0067 12.5636C66.2867 12.7575 66.5175 13.0067 66.6991 13.3114C66.8807 13.6161 66.9715 13.9901 66.9715 14.4332C66.9715 14.9441 66.8376 15.4058 66.5699 15.8182C66.3052 16.2306 65.9174 16.5584 65.4065 16.8015C64.8987 17.0446 64.2816 17.1662 63.5553 17.1662C62.8782 17.1662 62.2919 17.0569 61.7964 16.8384C61.304 16.6199 60.9162 16.3152 60.6331 15.9244C60.353 15.5335 60.1945 15.0795 60.1576 14.5625H61.3394C61.3702 14.9195 61.4902 15.215 61.6995 15.4489C61.9118 15.6797 62.1796 15.852 62.5028 15.9659C62.829 16.0767 63.1798 16.1321 63.5553 16.1321C63.9923 16.1321 64.3847 16.0613 64.7325 15.9197C65.0803 15.7751 65.3557 15.575 65.5589 15.3196C65.762 15.0611 65.8635 14.7595 65.8635 14.4148C65.8635 14.1009 65.7758 13.8454 65.6004 13.6484C65.425 13.4515 65.1942 13.2914 64.9079 13.1683C64.6217 13.0452 64.3124 12.9375 63.98 12.8452L62.8167 12.5128C62.078 12.3004 61.4933 11.9973 61.0624 11.6033C60.6315 11.2094 60.4161 10.6939 60.4161 10.0568C60.4161 9.52746 60.5592 9.06581 60.8454 8.67188C61.1347 8.27486 61.5225 7.96709 62.0088 7.74858C62.4981 7.52699 63.0444 7.41619 63.6476 7.41619C64.257 7.41619 64.7987 7.52545 65.2726 7.74396C65.7466 7.9594 66.1221 8.25485 66.3991 8.63033C66.6791 9.0058 66.8269 9.43205 66.8422 9.90909H65.7343Z" fill="white"/>
<path d="M80.3026 7.54545V17H79.1577V8.74574H79.1023L76.794 10.2784V9.11506L79.1577 7.54545H80.3026ZM86.0501 17.1293C85.4161 17.1293 84.8559 17.0169 84.3697 16.7923C83.8865 16.5645 83.5095 16.2521 83.2386 15.8551C82.9678 15.455 82.8339 14.9995 82.837 14.4886C82.8339 14.0885 82.9124 13.7192 83.0724 13.3807C83.2325 13.0391 83.451 12.7544 83.728 12.5266C84.008 12.2958 84.3204 12.1496 84.6651 12.0881V12.0327C84.2127 11.9157 83.8526 11.6618 83.5849 11.271C83.3171 10.877 83.1848 10.4292 83.1879 9.92756C83.1848 9.44744 83.3063 9.01811 83.5526 8.63956C83.7988 8.26101 84.1373 7.96248 84.5682 7.74396C85.0021 7.52545 85.4961 7.41619 86.0501 7.41619C86.5979 7.41619 87.0872 7.52545 87.5181 7.74396C87.949 7.96248 88.2875 8.26101 88.5337 8.63956C88.783 9.01811 88.9092 9.44744 88.9123 9.92756C88.9092 10.4292 88.7723 10.877 88.5014 11.271C88.2337 11.6618 87.8782 11.9157 87.435 12.0327V12.0881C87.7766 12.1496 88.0844 12.2958 88.3583 12.5266C88.6322 12.7544 88.8507 13.0391 89.0138 13.3807C89.177 13.7192 89.2601 14.0885 89.2631 14.4886C89.2601 14.9995 89.1216 15.455 88.8477 15.8551C88.5768 16.2521 88.1998 16.5645 87.7166 16.7923C87.2365 17.0169 86.681 17.1293 86.0501 17.1293ZM86.0501 16.1136C86.4779 16.1136 86.8472 16.0444 87.158 15.9059C87.4689 15.7674 87.7089 15.572 87.8782 15.3196C88.0475 15.0672 88.1336 14.7718 88.1367 14.4332C88.1336 14.0762 88.0413 13.7608 87.8597 13.4869C87.6781 13.2129 87.4304 12.9975 87.1165 12.8406C86.8056 12.6836 86.4502 12.6051 86.0501 12.6051C85.6469 12.6051 85.2868 12.6836 84.9698 12.8406C84.6559 12.9975 84.4081 13.2129 84.2266 13.4869C84.0481 13.7608 83.9603 14.0762 83.9634 14.4332C83.9603 14.7718 84.0419 15.0672 84.2081 15.3196C84.3774 15.572 84.619 15.7674 84.9329 15.9059C85.2468 16.0444 85.6192 16.1136 86.0501 16.1136ZM86.0501 11.6264C86.3886 11.6264 86.6887 11.5587 86.9503 11.4233C87.215 11.2879 87.4227 11.0986 87.5735 10.8555C87.7243 10.6123 87.8013 10.3277 87.8043 10.0014C87.8013 9.68134 87.7259 9.40282 87.5781 9.16584C87.4304 8.92578 87.2257 8.74112 86.9641 8.61186C86.7025 8.47952 86.3978 8.41335 86.0501 8.41335C85.6961 8.41335 85.3868 8.47952 85.1222 8.61186C84.8575 8.74112 84.6528 8.92578 84.5082 9.16584C84.3635 9.40282 84.2927 9.68134 84.2958 10.0014C84.2927 10.3277 84.3651 10.6123 84.5128 10.8555C84.6636 11.0986 84.8713 11.2879 85.136 11.4233C85.4007 11.5587 85.7054 11.6264 86.0501 11.6264ZM91.5529 17.0739C91.3252 17.0739 91.1297 16.9923 90.9666 16.8292C90.8035 16.6661 90.7219 16.4706 90.7219 16.2429C90.7219 16.0152 90.8035 15.8197 90.9666 15.6566C91.1297 15.4935 91.3252 15.4119 91.5529 15.4119C91.7807 15.4119 91.9761 15.4935 92.1392 15.6566C92.3023 15.8197 92.3839 16.0152 92.3839 16.2429C92.3839 16.3937 92.3454 16.5322 92.2685 16.6584C92.1946 16.7846 92.0946 16.8861 91.9684 16.9631C91.8453 17.0369 91.7068 17.0739 91.5529 17.0739ZM94.3205 17V16.169L97.4412 12.7528C97.8075 12.3527 98.1091 12.005 98.3461 11.7095C98.583 11.411 98.7585 11.1309 98.8723 10.8693C98.9893 10.6046 99.0478 10.3277 99.0478 10.0384C99.0478 9.70597 98.9677 9.41821 98.8077 9.17507C98.6507 8.93194 98.4353 8.7442 98.1614 8.61186C97.8875 8.47952 97.5797 8.41335 97.2381 8.41335C96.8749 8.41335 96.5579 8.48875 96.2871 8.63956C96.0194 8.78729 95.8116 8.99503 95.6639 9.26278C95.5192 9.53054 95.4469 9.84446 95.4469 10.2045H94.3574C94.3574 9.65057 94.4851 9.1643 94.7406 8.74574C94.996 8.32718 95.3438 8.00095 95.7839 7.76704C96.2271 7.53314 96.7241 7.41619 97.275 7.41619C97.829 7.41619 98.3199 7.53314 98.7477 7.76704C99.1755 8.00095 99.5109 8.31641 99.7541 8.71342C99.9972 9.11044 100.119 9.55208 100.119 10.0384C100.119 10.3861 100.056 10.7262 99.9295 11.0586C99.8064 11.3879 99.591 11.7557 99.2832 12.1619C98.9785 12.5651 98.5553 13.0575 98.0137 13.6392L95.8901 15.9105V15.9844H100.285V17H94.3205ZM103.004 17.0739C102.776 17.0739 102.581 16.9923 102.418 16.8292C102.255 16.6661 102.173 16.4706 102.173 16.2429C102.173 16.0152 102.255 15.8197 102.418 15.6566C102.581 15.4935 102.776 15.4119 103.004 15.4119C103.232 15.4119 103.427 15.4935 103.59 15.6566C103.753 15.8197 103.835 16.0152 103.835 16.2429C103.835 16.3937 103.797 16.5322 103.72 16.6584C103.646 16.7846 103.546 16.8861 103.42 16.9631C103.296 17.0369 103.158 17.0739 103.004 17.0739ZM108.525 17.1293C107.83 17.1293 107.237 16.94 106.748 16.5614C106.259 16.1798 105.885 15.6274 105.626 14.9041C105.368 14.1778 105.238 13.3007 105.238 12.2727C105.238 11.2509 105.368 10.3784 105.626 9.65518C105.888 8.92886 106.263 8.37488 106.753 7.99325C107.245 7.60855 107.836 7.41619 108.525 7.41619C109.215 7.41619 109.804 7.60855 110.294 7.99325C110.786 8.37488 111.161 8.92886 111.42 9.65518C111.682 10.3784 111.812 11.2509 111.812 12.2727C111.812 13.3007 111.683 14.1778 111.425 14.9041C111.166 15.6274 110.792 16.1798 110.303 16.5614C109.813 16.94 109.221 17.1293 108.525 17.1293ZM108.525 16.1136C109.215 16.1136 109.75 15.7812 110.132 15.1165C110.514 14.4517 110.704 13.5038 110.704 12.2727C110.704 11.4541 110.617 10.757 110.441 10.1815C110.269 9.60594 110.02 9.16738 109.693 8.86577C109.37 8.56416 108.981 8.41335 108.525 8.41335C107.842 8.41335 107.308 8.75035 106.923 9.42436C106.539 10.0953 106.346 11.0447 106.346 12.2727C106.346 13.0914 106.433 13.7869 106.605 14.3594C106.777 14.9318 107.025 15.3673 107.348 15.6658C107.674 15.9644 108.067 16.1136 108.525 16.1136Z" fill="white"/>
</svg>
