<svg width="161" height="25" viewBox="0 0 161 25" fill="none" xmlns="http://www.w3.org/2000/svg">
<path d="M7 1C3.68629 1 1 3.68629 1 7V18C1 21.3137 3.68629 24 7 24H112.5V1H7Z" fill="#1C3E78"/>
<path d="M154.5 24C157.814 24 160.5 21.3137 160.5 18V7C160.5 3.68629 157.814 1 154.5 1H112.5V24H154.5Z" fill="#62236A"/>
<path d="M160 7V18H161V7H160ZM1.5 18V7H0.5V18H1.5ZM7 1.5H112.5V0.5H7V1.5ZM112.5 1.5H154.5V0.5H112.5V1.5ZM154.5 23.5H112.5V24.5H154.5V23.5ZM112.5 23.5H7V24.5H112.5V23.5ZM112 1V24H113V1H112ZM0.5 18C0.5 21.5899 3.41015 24.5 7 24.5V23.5C3.96243 23.5 1.5 21.0376 1.5 18H0.5ZM160 18C160 21.0376 157.538 23.5 154.5 23.5V24.5C158.09 24.5 161 21.5899 161 18H160ZM161 7C161 3.41015 158.09 0.5 154.5 0.5V1.5C157.538 1.5 160 3.96243 160 7H161ZM1.5 7C1.5 3.96243 3.96243 1.5 7 1.5V0.5C3.41015 0.5 0.5 3.41015 0.5 7H1.5Z" fill="black"/>
<path d="M13.1449 17V7.54545H16.3395C17.0781 7.54545 17.6844 7.67164 18.1584 7.92401C18.6323 8.17329 18.9832 8.51645 19.2109 8.95348C19.4387 9.39051 19.5526 9.88755 19.5526 10.4446C19.5526 11.0017 19.4387 11.4956 19.2109 11.9265C18.9832 12.3574 18.6339 12.6959 18.163 12.9421C17.6921 13.1853 17.0904 13.3068 16.358 13.3068H13.7727V12.2727H16.321C16.8258 12.2727 17.232 12.1989 17.5398 12.0511C17.8506 11.9034 18.0753 11.6941 18.2138 11.4233C18.3554 11.1494 18.4261 10.8232 18.4261 10.4446C18.4261 10.0661 18.3554 9.7352 18.2138 9.45206C18.0722 9.16892 17.846 8.9504 17.5352 8.79652C17.2243 8.63956 16.8134 8.56108 16.3026 8.56108H14.2898V17H13.1449ZM17.5952 12.7528L19.9219 17H18.5923L16.3026 12.7528H17.5952ZM21.4603 17V7.54545H27.1663V8.56108H22.6052V11.7557H26.8708V12.7713H22.6052V15.9844H27.2401V17H21.4603ZM29.6176 17H28.4173L31.8889 7.54545H33.0708L36.5423 17H35.3421L32.5168 9.04119H32.4429L29.6176 17ZM30.0608 13.3068H34.8989V14.3224H30.0608V13.3068ZM45.1786 10.5H44.0337C43.966 10.1707 43.8475 9.88139 43.6783 9.6321C43.5121 9.38281 43.3089 9.17353 43.0689 9.00426C42.8319 8.83191 42.5688 8.70265 42.2795 8.61648C41.9902 8.5303 41.6886 8.48722 41.3746 8.48722C40.8022 8.48722 40.2836 8.63187 39.8189 8.92116C39.3572 9.21046 38.9895 9.63672 38.7156 10.1999C38.4447 10.7631 38.3093 11.4541 38.3093 12.2727C38.3093 13.0914 38.4447 13.7823 38.7156 14.3455C38.9895 14.9087 39.3572 15.335 39.8189 15.6243C40.2836 15.9136 40.8022 16.0582 41.3746 16.0582C41.6886 16.0582 41.9902 16.0152 42.2795 15.929C42.5688 15.8428 42.8319 15.7151 43.0689 15.5458C43.3089 15.3735 43.5121 15.1626 43.6783 14.9134C43.8475 14.661 43.966 14.3717 44.0337 14.0455H45.1786C45.0924 14.5286 44.9355 14.9611 44.7077 15.3427C44.48 15.7243 44.1969 16.049 43.8583 16.3168C43.5198 16.5814 43.1397 16.783 42.718 16.9215C42.2995 17.06 41.8517 17.1293 41.3746 17.1293C40.5683 17.1293 39.8512 16.9323 39.2234 16.5384C38.5955 16.1444 38.1016 15.5843 37.7415 14.858C37.3814 14.1316 37.2013 13.2699 37.2013 12.2727C37.2013 11.2756 37.3814 10.4138 37.7415 9.6875C38.1016 8.96117 38.5955 8.40104 39.2234 8.0071C39.8512 7.61316 40.5683 7.41619 41.3746 7.41619C41.8517 7.41619 42.2995 7.48544 42.718 7.62393C43.1397 7.76243 43.5198 7.96555 43.8583 8.23331C44.1969 8.49799 44.48 8.82114 44.7077 9.20277C44.9355 9.58132 45.0924 10.0137 45.1786 10.5ZM46.5116 8.56108V7.54545H53.6025V8.56108H50.6295V17H49.4846V8.56108H46.5116ZM58.3194 11.7649V12.7805H54.1831V11.7649H58.3194ZM61.529 7.54545V17H60.3841V7.54545H61.529ZM71.4325 10.5H70.2876C70.2199 10.1707 70.1014 9.88139 69.9322 9.6321C69.766 9.38281 69.5629 9.17353 69.3228 9.00426C69.0858 8.83191 68.8227 8.70265 68.5334 8.61648C68.2441 8.5303 67.9425 8.48722 67.6286 8.48722C67.0561 8.48722 66.5375 8.63187 66.0728 8.92116C65.6112 9.21046 65.2434 9.63672 64.9695 10.1999C64.6986 10.7631 64.5632 11.4541 64.5632 12.2727C64.5632 13.0914 64.6986 13.7823 64.9695 14.3455C65.2434 14.9087 65.6112 15.335 66.0728 15.6243C66.5375 15.9136 67.0561 16.0582 67.6286 16.0582C67.9425 16.0582 68.2441 16.0152 68.5334 15.929C68.8227 15.8428 69.0858 15.7151 69.3228 15.5458C69.5629 15.3735 69.766 15.1626 69.9322 14.9134C70.1014 14.661 70.2199 14.3717 70.2876 14.0455H71.4325C71.3464 14.5286 71.1894 14.9611 70.9616 15.3427C70.7339 15.7243 70.4508 16.049 70.1122 16.3168C69.7737 16.5814 69.3936 16.783 68.9719 16.9215C68.5534 17.06 68.1056 17.1293 67.6286 17.1293C66.8222 17.1293 66.1051 16.9323 65.4773 16.5384C64.8494 16.1444 64.3555 15.5843 63.9954 14.858C63.6353 14.1316 63.4553 13.2699 63.4553 12.2727C63.4553 11.2756 63.6353 10.4138 63.9954 9.6875C64.3555 8.96117 64.8494 8.40104 65.4773 8.0071C66.1051 7.61316 66.8222 7.41619 67.6286 7.41619C68.1056 7.41619 68.5534 7.48544 68.9719 7.62393C69.3936 7.76243 69.7737 7.96555 70.1122 8.23331C70.4508 8.49799 70.7339 8.82114 70.9616 9.20277C71.1894 9.58132 71.3464 10.0137 71.4325 10.5ZM81.2599 12.2727C81.2599 13.2699 81.0798 14.1316 80.7197 14.858C80.3596 15.5843 79.8657 16.1444 79.2378 16.5384C78.61 16.9323 77.8929 17.1293 77.0866 17.1293C76.2802 17.1293 75.5631 16.9323 74.9353 16.5384C74.3074 16.1444 73.8135 15.5843 73.4534 14.858C73.0933 14.1316 72.9133 13.2699 72.9133 12.2727C72.9133 11.2756 73.0933 10.4138 73.4534 9.6875C73.8135 8.96117 74.3074 8.40104 74.9353 8.0071C75.5631 7.61316 76.2802 7.41619 77.0866 7.41619C77.8929 7.41619 78.61 7.61316 79.2378 8.0071C79.8657 8.40104 80.3596 8.96117 80.7197 9.6875C81.0798 10.4138 81.2599 11.2756 81.2599 12.2727ZM80.1519 12.2727C80.1519 11.4541 80.0149 10.7631 79.741 10.1999C79.4702 9.63672 79.1024 9.21046 78.6377 8.92116C78.176 8.63187 77.659 8.48722 77.0866 8.48722C76.5141 8.48722 75.9955 8.63187 75.5308 8.92116C75.0692 9.21046 74.7014 9.63672 74.4275 10.1999C74.1566 10.7631 74.0212 11.4541 74.0212 12.2727C74.0212 13.0914 74.1566 13.7823 74.4275 14.3455C74.7014 14.9087 75.0692 15.335 75.5308 15.6243C75.9955 15.9136 76.5141 16.0582 77.0866 16.0582C77.659 16.0582 78.176 15.9136 78.6377 15.6243C79.1024 15.335 79.4702 14.9087 79.741 14.3455C80.0149 13.7823 80.1519 13.0914 80.1519 12.2727ZM90.6821 7.54545V17H89.5741L84.4221 9.5767H84.3298V17H83.1849V7.54545H84.2929L89.4633 14.9872H89.5557V7.54545H90.6821ZM98.1435 9.90909C98.0881 9.44129 97.8634 9.07812 97.4695 8.8196C97.0755 8.56108 96.5923 8.43182 96.0199 8.43182C95.6013 8.43182 95.2351 8.49953 94.9212 8.63494C94.6103 8.77036 94.3672 8.95656 94.1918 9.19354C94.0194 9.43052 93.9332 9.69981 93.9332 10.0014C93.9332 10.2538 93.9933 10.4708 94.1133 10.6523C94.2364 10.8308 94.3933 10.9801 94.5842 11.1001C94.775 11.2171 94.975 11.314 95.1843 11.391C95.3936 11.4648 95.5859 11.5249 95.7614 11.571L96.7216 11.8295C96.9678 11.8942 97.2417 11.9834 97.5433 12.0973C97.848 12.2112 98.1388 12.3666 98.4158 12.5636C98.6959 12.7575 98.9267 13.0067 99.1083 13.3114C99.2899 13.6161 99.3807 13.9901 99.3807 14.4332C99.3807 14.9441 99.2468 15.4058 98.979 15.8182C98.7144 16.2306 98.3266 16.5584 97.8157 16.8015C97.3079 17.0446 96.6908 17.1662 95.9645 17.1662C95.2874 17.1662 94.7011 17.0569 94.2056 16.8384C93.7132 16.6199 93.3254 16.3152 93.0423 15.9244C92.7622 15.5335 92.6037 15.0795 92.5668 14.5625H93.7486C93.7794 14.9195 93.8994 15.215 94.1087 15.4489C94.321 15.6797 94.5888 15.852 94.9119 15.9659C95.2382 16.0767 95.589 16.1321 95.9645 16.1321C96.4015 16.1321 96.7939 16.0613 97.1417 15.9197C97.4895 15.7751 97.7649 15.575 97.968 15.3196C98.1712 15.0611 98.2727 14.7595 98.2727 14.4148C98.2727 14.1009 98.185 13.8454 98.0096 13.6484C97.8342 13.4515 97.6033 13.2914 97.3171 13.1683C97.0309 13.0452 96.7216 12.9375 96.3892 12.8452L95.2259 12.5128C94.4872 12.3004 93.9025 11.9973 93.4716 11.6033C93.0407 11.2094 92.8253 10.6939 92.8253 10.0568C92.8253 9.52746 92.9684 9.06581 93.2546 8.67188C93.5439 8.27486 93.9317 7.96709 94.418 7.74858C94.9073 7.52699 95.4536 7.41619 96.0568 7.41619C96.6662 7.41619 97.2079 7.52545 97.6818 7.74396C98.1558 7.9594 98.5313 8.25485 98.8082 8.63033C99.0883 9.0058 99.236 9.43205 99.2514 9.90909H98.1435Z" fill="white"/>
<path d="M122.757 15.0611V14.1193L126.912 7.54545H127.595V9.00426H127.134L123.994 13.9716V14.0455H129.589V15.0611H122.757ZM127.207 17V14.7749V14.3363V7.54545H128.297V17H127.207ZM131.688 17.0739C131.46 17.0739 131.265 16.9923 131.101 16.8292C130.938 16.6661 130.857 16.4706 130.857 16.2429C130.857 16.0152 130.938 15.8197 131.101 15.6566C131.265 15.4935 131.46 15.4119 131.688 15.4119C131.915 15.4119 132.111 15.4935 132.274 15.6566C132.437 15.8197 132.519 16.0152 132.519 16.2429C132.519 16.3937 132.48 16.5322 132.403 16.6584C132.329 16.7846 132.229 16.8861 132.103 16.9631C131.98 17.0369 131.842 17.0739 131.688 17.0739ZM134.234 15.0611V14.1193L138.388 7.54545H139.072V9.00426H138.61L135.471 13.9716V14.0455H141.066V15.0611H134.234ZM138.684 17V14.7749V14.3363V7.54545H139.773V17H138.684ZM143.164 17.0739C142.936 17.0739 142.741 16.9923 142.578 16.8292C142.415 16.6661 142.333 16.4706 142.333 16.2429C142.333 16.0152 142.415 15.8197 142.578 15.6566C142.741 15.4935 142.936 15.4119 143.164 15.4119C143.392 15.4119 143.587 15.4935 143.751 15.6566C143.914 15.8197 143.995 16.0152 143.995 16.2429C143.995 16.3937 143.957 16.5322 143.88 16.6584C143.806 16.7846 143.706 16.8861 143.58 16.9631C143.457 17.0369 143.318 17.0739 143.164 17.0739ZM148.686 17.1293C147.99 17.1293 147.398 16.94 146.908 16.5614C146.419 16.1798 146.045 15.6274 145.786 14.9041C145.528 14.1778 145.399 13.3007 145.399 12.2727C145.399 11.2509 145.528 10.3784 145.786 9.65518C146.048 8.92886 146.423 8.37488 146.913 7.99325C147.405 7.60855 147.996 7.41619 148.686 7.41619C149.375 7.41619 149.964 7.60855 150.454 7.99325C150.946 8.37488 151.322 8.92886 151.58 9.65518C151.842 10.3784 151.972 11.2509 151.972 12.2727C151.972 13.3007 151.843 14.1778 151.585 14.9041C151.326 15.6274 150.952 16.1798 150.463 16.5614C149.974 16.94 149.381 17.1293 148.686 17.1293ZM148.686 16.1136C149.375 16.1136 149.91 15.7812 150.292 15.1165C150.674 14.4517 150.865 13.5038 150.865 12.2727C150.865 11.4541 150.777 10.757 150.601 10.1815C150.429 9.60594 150.18 9.16738 149.854 8.86577C149.53 8.56416 149.141 8.41335 148.686 8.41335C148.002 8.41335 147.468 8.75035 147.084 9.42436C146.699 10.0953 146.507 11.0447 146.507 12.2727C146.507 13.0914 146.593 13.7869 146.765 14.3594C146.937 14.9318 147.185 15.3673 147.508 15.6658C147.835 15.9644 148.227 16.1136 148.686 16.1136Z" fill="white"/>
</svg>
