<svg width="161" height="25" viewBox="0 0 161 25" fill="none" xmlns="http://www.w3.org/2000/svg">
<path d="M7 1C3.68629 1 1 3.68629 1 7V18C1 21.3137 3.68629 24 7 24H112.5V1H7Z" fill="#1C3E78"/>
<path d="M154.5 24C157.814 24 160.5 21.3137 160.5 18V7C160.5 3.68629 157.814 1 154.5 1H112.5V24H154.5Z" fill="#62236A"/>
<path d="M160 7V18H161V7H160ZM1.5 18V7H0.5V18H1.5ZM7 1.5H112.5V0.5H7V1.5ZM112.5 1.5H154.5V0.5H112.5V1.5ZM154.5 23.5H112.5V24.5H154.5V23.5ZM112.5 23.5H7V24.5H112.5V23.5ZM112 1V24H113V1H112ZM0.5 18C0.5 21.5899 3.41015 24.5 7 24.5V23.5C3.96243 23.5 1.5 21.0376 1.5 18H0.5ZM160 18C160 21.0376 157.538 23.5 154.5 23.5V24.5C158.09 24.5 161 21.5899 161 18H160ZM161 7C161 3.41015 158.09 0.5 154.5 0.5V1.5C157.538 1.5 160 3.96243 160 7H161ZM1.5 7C1.5 3.96243 3.96243 1.5 7 1.5V0.5C3.41015 0.5 0.5 3.41015 0.5 7H1.5Z" fill="black"/>
<path d="M8.14489 17V7.54545H11.3395C12.0781 7.54545 12.6844 7.67164 13.1584 7.92401C13.6323 8.17329 13.9832 8.51645 14.2109 8.95348C14.4387 9.39051 14.5526 9.88755 14.5526 10.4446C14.5526 11.0017 14.4387 11.4956 14.2109 11.9265C13.9832 12.3574 13.6339 12.6959 13.163 12.9421C12.6921 13.1853 12.0904 13.3068 11.358 13.3068H8.77273V12.2727H11.321C11.8258 12.2727 12.232 12.1989 12.5398 12.0511C12.8506 11.9034 13.0753 11.6941 13.2138 11.4233C13.3554 11.1494 13.4261 10.8232 13.4261 10.4446C13.4261 10.0661 13.3554 9.7352 13.2138 9.45206C13.0722 9.16892 12.846 8.9504 12.5352 8.79652C12.2243 8.63956 11.8134 8.56108 11.3026 8.56108H9.28977V17H8.14489ZM12.5952 12.7528L14.9219 17H13.5923L11.3026 12.7528H12.5952ZM16.4603 17V7.54545H22.1663V8.56108H17.6052V11.7557H21.8708V12.7713H17.6052V15.9844H22.2401V17H16.4603ZM24.6176 17H23.4173L26.8889 7.54545H28.0708L31.5423 17H30.3421L27.5168 9.04119H27.4429L24.6176 17ZM25.0608 13.3068H29.8989V14.3224H25.0608V13.3068ZM40.1786 10.5H39.0337C38.966 10.1707 38.8475 9.88139 38.6783 9.6321C38.5121 9.38281 38.3089 9.17353 38.0689 9.00426C37.8319 8.83191 37.5688 8.70265 37.2795 8.61648C36.9902 8.5303 36.6886 8.48722 36.3746 8.48722C35.8022 8.48722 35.2836 8.63187 34.8189 8.92116C34.3572 9.21046 33.9895 9.63672 33.7156 10.1999C33.4447 10.7631 33.3093 11.4541 33.3093 12.2727C33.3093 13.0914 33.4447 13.7823 33.7156 14.3455C33.9895 14.9087 34.3572 15.335 34.8189 15.6243C35.2836 15.9136 35.8022 16.0582 36.3746 16.0582C36.6886 16.0582 36.9902 16.0152 37.2795 15.929C37.5688 15.8428 37.8319 15.7151 38.0689 15.5458C38.3089 15.3735 38.5121 15.1626 38.6783 14.9134C38.8475 14.661 38.966 14.3717 39.0337 14.0455H40.1786C40.0924 14.5286 39.9355 14.9611 39.7077 15.3427C39.48 15.7243 39.1969 16.049 38.8583 16.3168C38.5198 16.5814 38.1397 16.783 37.718 16.9215C37.2995 17.06 36.8517 17.1293 36.3746 17.1293C35.5683 17.1293 34.8512 16.9323 34.2234 16.5384C33.5955 16.1444 33.1016 15.5843 32.7415 14.858C32.3814 14.1316 32.2013 13.2699 32.2013 12.2727C32.2013 11.2756 32.3814 10.4138 32.7415 9.6875C33.1016 8.96117 33.5955 8.40104 34.2234 8.0071C34.8512 7.61316 35.5683 7.41619 36.3746 7.41619C36.8517 7.41619 37.2995 7.48544 37.718 7.62393C38.1397 7.76243 38.5198 7.96555 38.8583 8.23331C39.1969 8.49799 39.48 8.82114 39.7077 9.20277C39.9355 9.58132 40.0924 10.0137 40.1786 10.5ZM41.5116 8.56108V7.54545H48.6025V8.56108H45.6295V17H44.4846V8.56108H41.5116ZM53.3194 11.7649V12.7805H49.1831V11.7649H53.3194ZM60.5546 9.90909C60.4992 9.44129 60.2745 9.07812 59.8806 8.8196C59.4867 8.56108 59.0035 8.43182 58.431 8.43182C58.0125 8.43182 57.6462 8.49953 57.3323 8.63494C57.0215 8.77036 56.7783 8.95656 56.6029 9.19354C56.4305 9.43052 56.3444 9.69981 56.3444 10.0014C56.3444 10.2538 56.4044 10.4708 56.5244 10.6523C56.6475 10.8308 56.8045 10.9801 56.9953 11.1001C57.1861 11.2171 57.3862 11.314 57.5954 11.391C57.8047 11.4648 57.9971 11.5249 58.1725 11.571L59.1327 11.8295C59.3789 11.8942 59.6528 11.9834 59.9545 12.0973C60.2591 12.2112 60.55 12.3666 60.827 12.5636C61.107 12.7575 61.3379 13.0067 61.5194 13.3114C61.701 13.6161 61.7918 13.9901 61.7918 14.4332C61.7918 14.9441 61.6579 15.4058 61.3902 15.8182C61.1255 16.2306 60.7377 16.5584 60.2268 16.8015C59.719 17.0446 59.1019 17.1662 58.3756 17.1662C57.6985 17.1662 57.1122 17.0569 56.6167 16.8384C56.1243 16.6199 55.7365 16.3152 55.4534 15.9244C55.1733 15.5335 55.0148 15.0795 54.9779 14.5625H56.1597C56.1905 14.9195 56.3105 15.215 56.5198 15.4489C56.7322 15.6797 56.9999 15.852 57.3231 15.9659C57.6493 16.0767 58.0001 16.1321 58.3756 16.1321C58.8126 16.1321 59.205 16.0613 59.5528 15.9197C59.9006 15.7751 60.176 15.575 60.3792 15.3196C60.5823 15.0611 60.6839 14.7595 60.6839 14.4148C60.6839 14.1009 60.5961 13.8454 60.4207 13.6484C60.2453 13.4515 60.0145 13.2914 59.7282 13.1683C59.442 13.0452 59.1327 12.9375 58.8003 12.8452L57.637 12.5128C56.8983 12.3004 56.3136 11.9973 55.8827 11.6033C55.4519 11.2094 55.2364 10.6939 55.2364 10.0568C55.2364 9.52746 55.3795 9.06581 55.6657 8.67188C55.955 8.27486 56.3428 7.96709 56.8291 7.74858C57.3184 7.52699 57.8647 7.41619 58.468 7.41619C59.0773 7.41619 59.619 7.52545 60.093 7.74396C60.5669 7.9594 60.9424 8.25485 61.2194 8.63033C61.4994 9.0058 61.6472 9.43205 61.6626 9.90909H60.5546ZM65.3915 17L62.8063 7.54545H63.9696L65.9455 15.2457H66.0378L68.0506 7.54545H69.3432L71.356 15.2457H71.4483L73.4242 7.54545H74.5875L72.0023 17H70.8205L68.7338 9.46591H68.66L66.5733 17H65.3915ZM77.1589 7.54545V17H76.014V7.54545H77.1589ZM78.9374 8.56108V7.54545H86.0283V8.56108H83.0553V17H81.9104V8.56108H78.9374ZM95.0097 10.5H93.8648C93.7971 10.1707 93.6786 9.88139 93.5093 9.6321C93.3431 9.38281 93.14 9.17353 92.8999 9.00426C92.663 8.83191 92.3998 8.70265 92.1105 8.61648C91.8212 8.5303 91.5196 8.48722 91.2057 8.48722C90.6333 8.48722 90.1147 8.63187 89.6499 8.92116C89.1883 9.21046 88.8205 9.63672 88.5466 10.1999C88.2758 10.7631 88.1404 11.4541 88.1404 12.2727C88.1404 13.0914 88.2758 13.7823 88.5466 14.3455C88.8205 14.9087 89.1883 15.335 89.6499 15.6243C90.1147 15.9136 90.6333 16.0582 91.2057 16.0582C91.5196 16.0582 91.8212 16.0152 92.1105 15.929C92.3998 15.8428 92.663 15.7151 92.8999 15.5458C93.14 15.3735 93.3431 15.1626 93.5093 14.9134C93.6786 14.661 93.7971 14.3717 93.8648 14.0455H95.0097C94.9235 14.5286 94.7665 14.9611 94.5388 15.3427C94.3111 15.7243 94.0279 16.049 93.6894 16.3168C93.3508 16.5814 92.9707 16.783 92.5491 16.9215C92.1305 17.06 91.6827 17.1293 91.2057 17.1293C90.3994 17.1293 89.6823 16.9323 89.0544 16.5384C88.4266 16.1444 87.9326 15.5843 87.5725 14.858C87.2124 14.1316 87.0324 13.2699 87.0324 12.2727C87.0324 11.2756 87.2124 10.4138 87.5725 9.6875C87.9326 8.96117 88.4266 8.40104 89.0544 8.0071C89.6823 7.61316 90.3994 7.41619 91.2057 7.41619C91.6827 7.41619 92.1305 7.48544 92.5491 7.62393C92.9707 7.76243 93.3508 7.96555 93.6894 8.23331C94.0279 8.49799 94.3111 8.82114 94.5388 9.20277C94.7665 9.58132 94.9235 10.0137 95.0097 10.5ZM96.8597 17V7.54545H98.0046V11.7557H103.046V7.54545H104.191V17H103.046V12.7713H98.0046V17H96.8597Z" fill="white"/>
<path d="M123.274 17L127.503 8.63494V8.56108H122.628V7.54545H128.685V8.61648L124.474 17H123.274ZM129.593 17.0739C129.365 17.0739 129.17 16.9923 129.007 16.8292C128.844 16.6661 128.762 16.4706 128.762 16.2429C128.762 16.0152 128.844 15.8197 129.007 15.6566C129.17 15.4935 129.365 15.4119 129.593 15.4119C129.821 15.4119 130.016 15.4935 130.179 15.6566C130.342 15.8197 130.424 16.0152 130.424 16.2429C130.424 16.3937 130.385 16.5322 130.309 16.6584C130.235 16.7846 130.135 16.8861 130.008 16.9631C129.885 17.0369 129.747 17.0739 129.593 17.0739ZM135.114 17.1293C134.419 17.1293 133.826 16.94 133.337 16.5614C132.848 16.1798 132.474 15.6274 132.215 14.9041C131.957 14.1778 131.827 13.3007 131.827 12.2727C131.827 11.2509 131.957 10.3784 132.215 9.65518C132.477 8.92886 132.852 8.37488 133.342 7.99325C133.834 7.60855 134.425 7.41619 135.114 7.41619C135.804 7.41619 136.393 7.60855 136.882 7.99325C137.375 8.37488 137.75 8.92886 138.009 9.65518C138.27 10.3784 138.401 11.2509 138.401 12.2727C138.401 13.3007 138.272 14.1778 138.013 14.9041C137.755 15.6274 137.381 16.1798 136.892 16.5614C136.402 16.94 135.81 17.1293 135.114 17.1293ZM135.114 16.1136C135.804 16.1136 136.339 15.7812 136.721 15.1165C137.102 14.4517 137.293 13.5038 137.293 12.2727C137.293 11.4541 137.206 10.757 137.03 10.1815C136.858 9.60594 136.608 9.16738 136.282 8.86577C135.959 8.56416 135.57 8.41335 135.114 8.41335C134.431 8.41335 133.897 8.75035 133.512 9.42436C133.128 10.0953 132.935 11.0447 132.935 12.2727C132.935 13.0914 133.021 13.7869 133.194 14.3594C133.366 14.9318 133.614 15.3673 133.937 15.6658C134.263 15.9644 134.656 16.1136 135.114 16.1136ZM140.638 17.0739C140.41 17.0739 140.215 16.9923 140.052 16.8292C139.888 16.6661 139.807 16.4706 139.807 16.2429C139.807 16.0152 139.888 15.8197 140.052 15.6566C140.215 15.4935 140.41 15.4119 140.638 15.4119C140.866 15.4119 141.061 15.4935 141.224 15.6566C141.387 15.8197 141.469 16.0152 141.469 16.2429C141.469 16.3937 141.43 16.5322 141.353 16.6584C141.28 16.7846 141.18 16.8861 141.053 16.9631C140.93 17.0369 140.792 17.0739 140.638 17.0739ZM146.159 17.1293C145.464 17.1293 144.871 16.94 144.382 16.5614C143.892 16.1798 143.519 15.6274 143.26 14.9041C143.002 14.1778 142.872 13.3007 142.872 12.2727C142.872 11.2509 143.002 10.3784 143.26 9.65518C143.522 8.92886 143.897 8.37488 144.386 7.99325C144.879 7.60855 145.47 7.41619 146.159 7.41619C146.849 7.41619 147.438 7.60855 147.927 7.99325C148.42 8.37488 148.795 8.92886 149.054 9.65518C149.315 10.3784 149.446 11.2509 149.446 12.2727C149.446 13.3007 149.317 14.1778 149.058 14.9041C148.8 15.6274 148.426 16.1798 147.937 16.5614C147.447 16.94 146.855 17.1293 146.159 17.1293ZM146.159 16.1136C146.849 16.1136 147.384 15.7812 147.766 15.1165C148.147 14.4517 148.338 13.5038 148.338 12.2727C148.338 11.4541 148.25 10.757 148.075 10.1815C147.903 9.60594 147.653 9.16738 147.327 8.86577C147.004 8.56416 146.615 8.41335 146.159 8.41335C145.476 8.41335 144.942 8.75035 144.557 9.42436C144.173 10.0953 143.98 11.0447 143.98 12.2727C143.98 13.0914 144.066 13.7869 144.239 14.3594C144.411 14.9318 144.659 15.3673 144.982 15.6658C145.308 15.9644 145.701 16.1136 146.159 16.1136Z" fill="white"/>
</svg>
