<svg width="209" height="25" viewBox="0 0 209 25" fill="none" xmlns="http://www.w3.org/2000/svg">
<path d="M7 1C3.68629 1 1 3.68629 1 7V18C1 21.3137 3.68629 24 7 24H160V1H7Z" fill="#1C3E78"/>
<path d="M202 24C205.314 24 208 21.3137 208 18V7C208 3.68629 205.314 1 202 1H160V24H202Z" fill="#62236A"/>
<path d="M207.5 7V18H208.5V7H207.5ZM1.5 18V7H0.5V18H1.5ZM7 1.5H160V0.5H7V1.5ZM160 1.5H202V0.5H160V1.5ZM202 23.5H160V24.5H202V23.5ZM160 23.5H7V24.5H160V23.5ZM159.5 1V24H160.5V1H159.5ZM0.5 18C0.5 21.5899 3.41014 24.5 7 24.5V23.5C3.96243 23.5 1.5 21.0376 1.5 18H0.5ZM207.5 18C207.5 21.0376 205.038 23.5 202 23.5V24.5C205.59 24.5 208.5 21.5899 208.5 18H207.5ZM208.5 7C208.5 3.41015 205.59 0.5 202 0.5V1.5C205.038 1.5 207.5 3.96243 207.5 7H208.5ZM1.5 7C1.5 3.96243 3.96243 1.5 7 1.5V0.5C3.41015 0.5 0.5 3.41015 0.5 7H1.5Z" fill="black"/>
<path d="M11.8153 9.90909C11.7599 9.44129 11.5353 9.07812 11.1413 8.8196C10.7474 8.56108 10.2642 8.43182 9.69176 8.43182C9.2732 8.43182 8.90696 8.49953 8.59304 8.63494C8.2822 8.77036 8.03906 8.95656 7.86364 9.19354C7.69129 9.43052 7.60511 9.69981 7.60511 10.0014C7.60511 10.2538 7.66513 10.4708 7.78516 10.6523C7.90826 10.8308 8.06522 10.9801 8.25604 11.1001C8.44685 11.2171 8.6469 11.314 8.85618 11.391C9.06546 11.4648 9.25781 11.5249 9.43324 11.571L10.3935 11.8295C10.6397 11.8942 10.9136 11.9834 11.2152 12.0973C11.5199 12.2112 11.8107 12.3666 12.0877 12.5636C12.3678 12.7575 12.5986 13.0067 12.7802 13.3114C12.9618 13.6161 13.0526 13.9901 13.0526 14.4332C13.0526 14.9441 12.9187 15.4058 12.6509 15.8182C12.3862 16.2306 11.9985 16.5584 11.4876 16.8015C10.9798 17.0446 10.3627 17.1662 9.63636 17.1662C8.95928 17.1662 8.37299 17.0569 7.87749 16.8384C7.38506 16.6199 6.99728 16.3152 6.71413 15.9244C6.43407 15.5335 6.27557 15.0795 6.23864 14.5625H7.42045C7.45123 14.9195 7.57126 15.215 7.78054 15.4489C7.9929 15.6797 8.26065 15.852 8.58381 15.9659C8.91004 16.0767 9.26089 16.1321 9.63636 16.1321C10.0734 16.1321 10.4658 16.0613 10.8136 15.9197C11.1613 15.7751 11.4368 15.575 11.6399 15.3196C11.843 15.0611 11.9446 14.7595 11.9446 14.4148C11.9446 14.1009 11.8569 13.8454 11.6815 13.6484C11.506 13.4515 11.2752 13.2914 10.989 13.1683C10.7028 13.0452 10.3935 12.9375 10.0611 12.8452L8.89773 12.5128C8.15909 12.3004 7.57434 11.9973 7.14347 11.6033C6.71259 11.2094 6.49716 10.6939 6.49716 10.0568C6.49716 9.52746 6.64027 9.06581 6.92649 8.67188C7.21579 8.27486 7.60357 7.96709 8.08984 7.74858C8.57919 7.52699 9.12547 7.41619 9.72869 7.41619C10.3381 7.41619 10.8797 7.52545 11.3537 7.74396C11.8277 7.9594 12.2031 8.25485 12.4801 8.63033C12.7602 9.0058 12.9079 9.43205 12.9233 9.90909H11.8153ZM14.4179 8.56108V7.54545H21.5088V8.56108H18.5358V17H17.3909V8.56108H14.4179ZM22.4632 7.54545H23.7743L26.3965 11.9588H26.5073L29.1294 7.54545H30.4405L27.0243 13.1037V17H25.8794V13.1037L22.4632 7.54545ZM31.9213 17V7.54545H33.0661V15.9844H37.461V17H31.9213ZM39.2338 17V7.54545H44.9397V8.56108H40.3786V11.7557H44.6443V12.7713H40.3786V15.9844H45.0136V17H39.2338ZM49.9209 17H47.0033V7.54545H50.0502C50.9673 7.54545 51.7521 7.73473 52.4046 8.11328C53.057 8.48875 53.5571 9.02888 53.9049 9.73366C54.2527 10.4354 54.4266 11.2756 54.4266 12.2543C54.4266 13.2391 54.2512 14.087 53.9003 14.7979C53.5494 15.5058 53.0386 16.0505 52.3676 16.4322C51.6967 16.8107 50.8811 17 49.9209 17ZM48.1482 15.9844H49.847C50.6288 15.9844 51.2766 15.8336 51.7906 15.532C52.3045 15.2304 52.6877 14.801 52.9401 14.244C53.1924 13.6869 53.3186 13.0237 53.3186 12.2543C53.3186 11.491 53.194 10.8339 52.9447 10.283C52.6954 9.72905 52.323 9.30433 51.8275 9.00888C51.332 8.71035 50.7149 8.56108 49.9763 8.56108H48.1482V15.9844ZM60.2618 11.7649V12.7805H56.1254V11.7649H60.2618ZM69.9345 10.5H68.7896C68.7219 10.1707 68.6034 9.88139 68.4341 9.6321C68.2679 9.38281 68.0648 9.17353 67.8248 9.00426C67.5878 8.83191 67.3246 8.70265 67.0353 8.61648C66.746 8.5303 66.4444 8.48722 66.1305 8.48722C65.5581 8.48722 65.0395 8.63187 64.5748 8.92116C64.1131 9.21046 63.7453 9.63672 63.4714 10.1999C63.2006 10.7631 63.0652 11.4541 63.0652 12.2727C63.0652 13.0914 63.2006 13.7823 63.4714 14.3455C63.7453 14.9087 64.1131 15.335 64.5748 15.6243C65.0395 15.9136 65.5581 16.0582 66.1305 16.0582C66.4444 16.0582 66.746 16.0152 67.0353 15.929C67.3246 15.8428 67.5878 15.7151 67.8248 15.5458C68.0648 15.3735 68.2679 15.1626 68.4341 14.9134C68.6034 14.661 68.7219 14.3717 68.7896 14.0455H69.9345C69.8483 14.5286 69.6913 14.9611 69.4636 15.3427C69.2359 15.7243 68.9527 16.049 68.6142 16.3168C68.2756 16.5814 67.8955 16.783 67.4739 16.9215C67.0553 17.06 66.6075 17.1293 66.1305 17.1293C65.3242 17.1293 64.6071 16.9323 63.9792 16.5384C63.3514 16.1444 62.8574 15.5843 62.4973 14.858C62.1373 14.1316 61.9572 13.2699 61.9572 12.2727C61.9572 11.2756 62.1373 10.4138 62.4973 9.6875C62.8574 8.96117 63.3514 8.40104 63.9792 8.0071C64.6071 7.61316 65.3242 7.41619 66.1305 7.41619C66.6075 7.41619 67.0553 7.48544 67.4739 7.62393C67.8955 7.76243 68.2756 7.96555 68.6142 8.23331C68.9527 8.49799 69.2359 8.82114 69.4636 9.20277C69.6913 9.58132 69.8483 10.0137 69.9345 10.5ZM79.7618 12.2727C79.7618 13.2699 79.5818 14.1316 79.2217 14.858C78.8616 15.5843 78.3676 16.1444 77.7398 16.5384C77.1119 16.9323 76.3949 17.1293 75.5885 17.1293C74.7822 17.1293 74.0651 16.9323 73.4372 16.5384C72.8094 16.1444 72.3154 15.5843 71.9553 14.858C71.5953 14.1316 71.4152 13.2699 71.4152 12.2727C71.4152 11.2756 71.5953 10.4138 71.9553 9.6875C72.3154 8.96117 72.8094 8.40104 73.4372 8.0071C74.0651 7.61316 74.7822 7.41619 75.5885 7.41619C76.3949 7.41619 77.1119 7.61316 77.7398 8.0071C78.3676 8.40104 78.8616 8.96117 79.2217 9.6875C79.5818 10.4138 79.7618 11.2756 79.7618 12.2727ZM78.6539 12.2727C78.6539 11.4541 78.5169 10.7631 78.243 10.1999C77.9722 9.63672 77.6044 9.21046 77.1396 8.92116C76.678 8.63187 76.161 8.48722 75.5885 8.48722C75.0161 8.48722 74.4975 8.63187 74.0328 8.92116C73.5711 9.21046 73.2033 9.63672 72.9294 10.1999C72.6586 10.7631 72.5232 11.4541 72.5232 12.2727C72.5232 13.0914 72.6586 13.7823 72.9294 14.3455C73.2033 14.9087 73.5711 15.335 74.0328 15.6243C74.4975 15.9136 75.0161 16.0582 75.5885 16.0582C76.161 16.0582 76.678 15.9136 77.1396 15.6243C77.6044 15.335 77.9722 14.9087 78.243 14.3455C78.5169 13.7823 78.6539 13.0914 78.6539 12.2727ZM81.6869 7.54545H83.0534L86.2664 15.3935H86.3772L89.5903 7.54545H90.9568V17H89.8857V9.81676H89.7934L86.8389 17H85.8048L82.8502 9.81676H82.7579V17H81.6869V7.54545ZM93.2523 17V7.54545H96.4469C97.1886 7.54545 97.7949 7.67933 98.2658 7.94709C98.7398 8.21177 99.0906 8.57031 99.3184 9.02273C99.5461 9.47514 99.66 9.97988 99.66 10.5369C99.66 11.094 99.5461 11.6003 99.3184 12.0558C99.0937 12.5112 98.7459 12.8744 98.275 13.1452C97.8042 13.413 97.2009 13.5469 96.4654 13.5469H94.1756V12.5312H96.4284C96.9363 12.5312 97.344 12.4435 97.6518 12.2681C97.9596 12.0927 98.1827 11.8557 98.3212 11.5572C98.4628 11.2556 98.5336 10.9155 98.5336 10.5369C98.5336 10.1584 98.4628 9.81984 98.3212 9.52131C98.1827 9.22277 97.958 8.98887 97.6472 8.8196C97.3364 8.64725 96.9239 8.56108 96.41 8.56108H94.3972V17H93.2523ZM109.482 12.2727C109.482 13.2699 109.301 14.1316 108.941 14.858C108.581 15.5843 108.087 16.1444 107.46 16.5384C106.832 16.9323 106.115 17.1293 105.308 17.1293C104.502 17.1293 103.785 16.9323 103.157 16.5384C102.529 16.1444 102.035 15.5843 101.675 14.858C101.315 14.1316 101.135 13.2699 101.135 12.2727C101.135 11.2756 101.315 10.4138 101.675 9.6875C102.035 8.96117 102.529 8.40104 103.157 8.0071C103.785 7.61316 104.502 7.41619 105.308 7.41619C106.115 7.41619 106.832 7.61316 107.46 8.0071C108.087 8.40104 108.581 8.96117 108.941 9.6875C109.301 10.4138 109.482 11.2756 109.482 12.2727ZM108.374 12.2727C108.374 11.4541 108.237 10.7631 107.963 10.1999C107.692 9.63672 107.324 9.21046 106.859 8.92116C106.398 8.63187 105.881 8.48722 105.308 8.48722C104.736 8.48722 104.217 8.63187 103.752 8.92116C103.291 9.21046 102.923 9.63672 102.649 10.1999C102.378 10.7631 102.243 11.4541 102.243 12.2727C102.243 13.0914 102.378 13.7823 102.649 14.3455C102.923 14.9087 103.291 15.335 103.752 15.6243C104.217 15.9136 104.736 16.0582 105.308 16.0582C105.881 16.0582 106.398 15.9136 106.859 15.6243C107.324 15.335 107.692 14.9087 107.963 14.3455C108.237 13.7823 108.374 13.0914 108.374 12.2727ZM118.904 7.54545V17H117.796L112.644 9.5767H112.551V17H111.407V7.54545H112.515L117.685 14.9872H117.777V7.54545H118.904ZM121.195 17V7.54545H126.901V8.56108H122.34V11.7557H126.605V12.7713H122.34V15.9844H126.975V17H121.195ZM136.461 7.54545V17H135.353L130.201 9.5767H130.109V17H128.964V7.54545H130.072L135.243 14.9872H135.335V7.54545H136.461ZM138.235 8.56108V7.54545H145.326V8.56108H142.353V17H141.208V8.56108H138.235ZM152.264 9.90909C152.208 9.44129 151.984 9.07812 151.59 8.8196C151.196 8.56108 150.712 8.43182 150.14 8.43182C149.721 8.43182 149.355 8.49953 149.041 8.63494C148.73 8.77036 148.487 8.95656 148.312 9.19354C148.14 9.43052 148.053 9.69981 148.053 10.0014C148.053 10.2538 148.113 10.4708 148.233 10.6523C148.357 10.8308 148.513 10.9801 148.704 11.1001C148.895 11.2171 149.095 11.314 149.304 11.391C149.514 11.4648 149.706 11.5249 149.881 11.571L150.842 11.8295C151.088 11.8942 151.362 11.9834 151.663 12.0973C151.968 12.2112 152.259 12.3666 152.536 12.5636C152.816 12.7575 153.047 13.0067 153.228 13.3114C153.41 13.6161 153.501 13.9901 153.501 14.4332C153.501 14.9441 153.367 15.4058 153.099 15.8182C152.834 16.2306 152.447 16.5584 151.936 16.8015C151.428 17.0446 150.811 17.1662 150.085 17.1662C149.408 17.1662 148.821 17.0569 148.326 16.8384C147.833 16.6199 147.446 16.3152 147.162 15.9244C146.882 15.5335 146.724 15.0795 146.687 14.5625H147.869C147.899 14.9195 148.02 15.215 148.229 15.4489C148.441 15.6797 148.709 15.852 149.032 15.9659C149.358 16.0767 149.709 16.1321 150.085 16.1321C150.522 16.1321 150.914 16.0613 151.262 15.9197C151.61 15.7751 151.885 15.575 152.088 15.3196C152.291 15.0611 152.393 14.7595 152.393 14.4148C152.393 14.1009 152.305 13.8454 152.13 13.6484C151.954 13.4515 151.723 13.2914 151.437 13.1683C151.151 13.0452 150.842 12.9375 150.509 12.8452L149.346 12.5128C148.607 12.3004 148.023 11.9973 147.592 11.6033C147.161 11.2094 146.945 10.6939 146.945 10.0568C146.945 9.52746 147.089 9.06581 147.375 8.67188C147.664 8.27486 148.052 7.96709 148.538 7.74858C149.027 7.52699 149.574 7.41619 150.177 7.41619C150.786 7.41619 151.328 7.52545 151.802 7.74396C152.276 7.9594 152.651 8.25485 152.928 8.63033C153.208 9.0058 153.356 9.43205 153.372 9.90909H152.264Z" fill="white"/>
<path d="M173.433 17.1293C172.892 17.1293 172.404 17.0215 171.97 16.8061C171.536 16.5907 171.188 16.2952 170.926 15.9197C170.665 15.5443 170.522 15.1165 170.497 14.6364H171.605C171.648 15.0642 171.842 15.4181 172.187 15.6982C172.535 15.9751 172.95 16.1136 173.433 16.1136C173.821 16.1136 174.166 16.0228 174.467 15.8413C174.772 15.6597 175.011 15.4104 175.183 15.0934C175.358 14.7733 175.446 14.4117 175.446 14.0085C175.446 13.5961 175.355 13.2283 175.174 12.9052C174.995 12.579 174.749 12.322 174.435 12.1342C174.121 11.9465 173.763 11.8511 173.359 11.848C173.07 11.8449 172.773 11.8896 172.468 11.9819C172.164 12.0711 171.913 12.1866 171.716 12.3281L170.645 12.1989L171.217 7.54545H176.129V8.56108H172.178L171.845 11.3494H171.901C172.094 11.1955 172.338 11.0678 172.63 10.9663C172.922 10.8647 173.227 10.8139 173.544 10.8139C174.123 10.8139 174.638 10.9524 175.091 11.2294C175.546 11.5033 175.903 11.8788 176.162 12.3558C176.423 12.8329 176.554 13.3776 176.554 13.9901C176.554 14.5933 176.419 15.1319 176.148 15.6058C175.88 16.0767 175.511 16.4491 175.04 16.723C174.569 16.9938 174.033 17.1293 173.433 17.1293ZM178.845 17.0739C178.617 17.0739 178.422 16.9923 178.259 16.8292C178.095 16.6661 178.014 16.4706 178.014 16.2429C178.014 16.0152 178.095 15.8197 178.259 15.6566C178.422 15.4935 178.617 15.4119 178.845 15.4119C179.073 15.4119 179.268 15.4935 179.431 15.6566C179.594 15.8197 179.676 16.0152 179.676 16.2429C179.676 16.3937 179.637 16.5322 179.56 16.6584C179.487 16.7846 179.387 16.8861 179.26 16.9631C179.137 17.0369 178.999 17.0739 178.845 17.0739ZM184.452 17.1293C183.842 17.1293 183.299 17.0246 182.822 16.8153C182.348 16.6061 181.971 16.3152 181.691 15.9428C181.414 15.5674 181.263 15.1319 181.239 14.6364H182.402C182.427 14.9411 182.531 15.2042 182.716 15.4258C182.9 15.6443 183.142 15.8136 183.441 15.9336C183.739 16.0536 184.07 16.1136 184.433 16.1136C184.839 16.1136 185.199 16.0429 185.513 15.9013C185.827 15.7597 186.074 15.5627 186.252 15.3104C186.431 15.058 186.52 14.7656 186.52 14.4332C186.52 14.0855 186.434 13.7792 186.261 13.5146C186.089 13.2468 185.837 13.0375 185.504 12.8867C185.172 12.7359 184.766 12.6605 184.285 12.6605H183.528V11.6449H184.285C184.661 11.6449 184.99 11.5772 185.273 11.4418C185.56 11.3063 185.783 11.1155 185.943 10.8693C186.106 10.6231 186.187 10.3338 186.187 10.0014C186.187 9.68134 186.117 9.40282 185.975 9.16584C185.833 8.92886 185.633 8.7442 185.375 8.61186C185.119 8.47952 184.818 8.41335 184.47 8.41335C184.144 8.41335 183.836 8.47337 183.547 8.59339C183.261 8.71035 183.027 8.88116 182.845 9.10582C182.664 9.32741 182.565 9.59517 182.55 9.90909H181.442C181.46 9.41359 181.609 8.97964 181.889 8.60724C182.17 8.23177 182.536 7.93939 182.988 7.73011C183.444 7.52083 183.944 7.41619 184.489 7.41619C185.073 7.41619 185.575 7.53468 185.994 7.77166C186.412 8.00556 186.734 8.31487 186.958 8.69957C187.183 9.08428 187.295 9.49976 187.295 9.94602C187.295 10.4785 187.155 10.9324 186.875 11.3079C186.598 11.6834 186.221 11.9434 185.744 12.0881V12.1619C186.341 12.2604 186.808 12.5143 187.143 12.9237C187.478 13.3299 187.646 13.8331 187.646 14.4332C187.646 14.9472 187.506 15.4089 187.226 15.8182C186.949 16.2244 186.571 16.5445 186.09 16.7784C185.61 17.0123 185.064 17.1293 184.452 17.1293ZM190.055 17.0739C189.827 17.0739 189.632 16.9923 189.469 16.8292C189.305 16.6661 189.224 16.4706 189.224 16.2429C189.224 16.0152 189.305 15.8197 189.469 15.6566C189.632 15.4935 189.827 15.4119 190.055 15.4119C190.283 15.4119 190.478 15.4935 190.641 15.6566C190.804 15.8197 190.886 16.0152 190.886 16.2429C190.886 16.3937 190.847 16.5322 190.77 16.6584C190.697 16.7846 190.597 16.8861 190.47 16.9631C190.347 17.0369 190.209 17.0739 190.055 17.0739ZM195.587 17.1293C195.045 17.1293 194.557 17.0215 194.123 16.8061C193.689 16.5907 193.341 16.2952 193.08 15.9197C192.818 15.5443 192.675 15.1165 192.65 14.6364H193.758C193.802 15.0642 193.995 15.4181 194.34 15.6982C194.688 15.9751 195.103 16.1136 195.587 16.1136C195.974 16.1136 196.319 16.0228 196.621 15.8413C196.925 15.6597 197.164 15.4104 197.336 15.0934C197.512 14.7733 197.599 14.4117 197.599 14.0085C197.599 13.5961 197.509 13.2283 197.327 12.9052C197.148 12.579 196.902 12.322 196.588 12.1342C196.274 11.9465 195.916 11.8511 195.513 11.848C195.223 11.8449 194.926 11.8896 194.622 11.9819C194.317 12.0711 194.066 12.1866 193.869 12.3281L192.798 12.1989L193.371 7.54545H198.283V8.56108H194.331L193.998 11.3494H194.054C194.248 11.1955 194.491 11.0678 194.783 10.9663C195.076 10.8647 195.38 10.8139 195.697 10.8139C196.276 10.8139 196.791 10.9524 197.244 11.2294C197.699 11.5033 198.056 11.8788 198.315 12.3558C198.576 12.8329 198.707 13.3776 198.707 13.9901C198.707 14.5933 198.572 15.1319 198.301 15.6058C198.033 16.0767 197.664 16.4491 197.193 16.723C196.722 16.9938 196.187 17.1293 195.587 17.1293Z" fill="white"/>
</svg>
