<svg width="522" height="464" viewBox="0 0 522 464" fill="none" xmlns="http://www.w3.org/2000/svg">
<g clip-path="url(#clip0_15_133)">
<path d="M470.655 241.473C470.723 298.888 448.977 354.094 409.988 395.486C407.638 397.998 405.224 400.449 402.746 402.839C398.972 406.503 395.071 410.025 391.042 413.406C353.361 445.088 306.319 462.891 257.507 463.944C255.881 463.981 254.248 464 252.61 464C213.681 464 164.718 442.78 120.284 413.406C116.607 410.975 112.964 408.489 109.353 405.946C107.665 404.768 105.986 403.574 104.314 402.363C87.1767 390.014 70.9097 376.452 55.6333 361.778C45.6313 352.198 36.252 341.963 27.5552 331.138C-6.58654 288.159 -14.117 249.434 34.5579 241.473C40.3208 240.534 45.9139 239.529 51.3372 238.46C59.193 236.92 66.7112 235.256 73.8918 233.469C83.5641 231.07 92.6514 228.468 101.154 225.665C104.014 224.725 106.808 223.767 109.537 222.79C149.884 208.328 176.888 189.469 195.269 169.007C198.387 165.544 201.261 162.038 203.892 158.491C207.917 153.092 211.573 147.417 214.835 141.505C219.336 133.292 223.117 124.688 226.133 115.795L226.299 115.306C240.924 72.2526 236.475 32.3181 252.61 18.9523C321.581 -38.1873 407.447 43.1848 447.751 139.144C449.783 143.979 451.693 148.844 453.483 153.737C454.287 155.923 455.063 158.113 455.809 160.308C457.773 166.026 459.555 171.759 461.155 177.506C461.769 179.699 462.354 181.889 462.91 184.077C463.505 186.438 464.076 188.793 464.604 191.148C468.526 208.391 470.655 225.395 470.655 241.473Z" fill="#F2F2F2"/>
<path d="M257.507 463.944C255.881 463.981 254.248 464 252.61 464C213.681 464 164.718 442.78 120.284 413.405C116.607 410.975 112.964 408.489 109.353 405.946L112.52 386.279L208.391 373.289L256.507 410.837L257.507 463.944Z" fill="#2F2E41"/>
<path d="M262.122 112.77H248.461C248.038 112.77 247.632 112.941 247.333 113.247C247.034 113.552 246.865 113.966 246.865 114.398V128.346C246.865 128.56 246.907 128.771 246.987 128.968C247.068 129.165 247.185 129.344 247.333 129.495C247.482 129.646 247.657 129.765 247.851 129.846C248.044 129.927 248.252 129.969 248.461 129.968H262.122C262.545 129.969 262.95 129.798 263.249 129.494C263.548 129.19 263.717 128.777 263.718 128.346V114.398C263.717 113.966 263.548 113.553 263.249 113.248C262.95 112.943 262.545 112.771 262.122 112.77Z" fill="#333333"/>
<path d="M262.122 136.539H248.461C248.038 136.539 247.632 136.71 247.333 137.016C247.034 137.321 246.865 137.735 246.865 138.167V152.115C246.865 152.329 246.907 152.54 246.987 152.737C247.068 152.934 247.185 153.113 247.333 153.264C247.482 153.415 247.657 153.534 247.851 153.615C248.044 153.697 248.252 153.738 248.461 153.737H262.122C262.545 153.738 262.95 153.567 263.249 153.263C263.548 152.959 263.717 152.546 263.718 152.115V138.167C263.717 137.736 263.548 137.322 263.249 137.017C262.95 136.712 262.545 136.54 262.122 136.539Z" fill="#6E6E6E"/>
<path d="M262.122 160.308H248.461C248.038 160.308 247.632 160.479 247.333 160.785C247.034 161.09 246.865 161.504 246.865 161.936V175.878C246.865 176.092 246.906 176.304 246.986 176.502C247.066 176.7 247.183 176.879 247.332 177.03C247.48 177.182 247.656 177.302 247.85 177.383C248.044 177.465 248.251 177.507 248.461 177.506H262.122C262.546 177.506 262.951 177.335 263.251 177.029C263.55 176.724 263.718 176.31 263.718 175.878V161.936C263.717 161.505 263.548 161.091 263.249 160.786C262.95 160.481 262.545 160.309 262.122 160.308Z" fill="#6E6E6E"/>
<path d="M263.694 185.417C263.626 185.042 263.431 184.703 263.145 184.458C262.858 184.213 262.496 184.078 262.122 184.077H248.461C248.038 184.077 247.632 184.248 247.333 184.554C247.034 184.859 246.865 185.273 246.865 185.705V199.647C246.865 199.861 246.906 200.073 246.986 200.271C247.066 200.468 247.183 200.648 247.332 200.799C247.48 200.951 247.656 201.071 247.85 201.152C248.044 201.234 248.251 201.276 248.461 201.275H262.122C262.546 201.275 262.951 201.104 263.251 200.798C263.55 200.493 263.718 200.079 263.718 199.647V185.705C263.719 185.608 263.711 185.512 263.694 185.417Z" fill="#6E6E6E"/>
<path d="M262.742 207.971C262.546 207.888 262.335 207.845 262.123 207.846H248.461C248.251 207.845 248.044 207.887 247.85 207.969C247.656 208.05 247.48 208.17 247.332 208.322C247.183 208.473 247.066 208.653 246.986 208.85C246.906 209.048 246.865 209.26 246.865 209.474V223.416C246.864 223.63 246.905 223.842 246.985 224.04C247.065 224.238 247.182 224.418 247.331 224.57C247.479 224.721 247.655 224.841 247.849 224.923C248.043 225.004 248.251 225.046 248.461 225.045H262.123C262.546 225.044 262.951 224.873 263.251 224.567C263.55 224.262 263.718 223.848 263.718 223.416V209.474C263.718 209.154 263.625 208.84 263.451 208.573C263.278 208.306 263.031 208.097 262.742 207.971Z" fill="#6E6E6E"/>
<path d="M290.82 112.77H277.159C276.736 112.77 276.33 112.941 276.031 113.247C275.732 113.552 275.563 113.966 275.563 114.398V128.346C275.563 128.56 275.605 128.771 275.685 128.968C275.766 129.165 275.883 129.344 276.031 129.495C276.18 129.646 276.355 129.765 276.549 129.846C276.742 129.927 276.95 129.969 277.159 129.968H290.82C291.243 129.969 291.648 129.798 291.947 129.494C292.246 129.19 292.415 128.777 292.416 128.346V114.398C292.415 113.966 292.246 113.553 291.947 113.248C291.648 112.943 291.243 112.771 290.82 112.77Z" fill="#6E6E6E"/>
<path d="M290.82 136.539H277.159C276.736 136.539 276.33 136.71 276.031 137.016C275.732 137.321 275.563 137.735 275.563 138.167V152.115C275.563 152.329 275.605 152.54 275.685 152.737C275.766 152.934 275.883 153.113 276.031 153.264C276.18 153.415 276.355 153.534 276.549 153.615C276.742 153.697 276.95 153.738 277.159 153.737H290.82C291.243 153.738 291.648 153.567 291.947 153.263C292.246 152.959 292.415 152.546 292.416 152.115V138.167C292.415 137.736 292.246 137.322 291.947 137.017C291.648 136.712 291.243 136.54 290.82 136.539Z" fill="#202020"/>
<path d="M290.82 160.308H277.159C276.736 160.308 276.33 160.479 276.031 160.785C275.732 161.09 275.563 161.504 275.563 161.936V175.878C275.563 176.092 275.604 176.304 275.684 176.502C275.764 176.7 275.881 176.879 276.03 177.03C276.178 177.182 276.354 177.302 276.548 177.383C276.742 177.465 276.949 177.507 277.159 177.506H290.82C291.244 177.506 291.649 177.335 291.949 177.029C292.248 176.724 292.416 176.31 292.416 175.878V161.936C292.415 161.505 292.246 161.091 291.947 160.786C291.648 160.481 291.243 160.309 290.82 160.308Z" fill="#202020"/>
<path d="M290.82 184.077H277.159C276.824 184.077 276.498 184.185 276.227 184.385C275.956 184.585 275.754 184.867 275.649 185.191C275.592 185.356 275.563 185.53 275.563 185.705V199.647C275.563 199.861 275.604 200.073 275.684 200.271C275.764 200.468 275.881 200.648 276.03 200.799C276.178 200.951 276.354 201.071 276.548 201.152C276.741 201.234 276.949 201.276 277.159 201.275H290.82C291.244 201.275 291.649 201.104 291.949 200.798C292.248 200.493 292.416 200.079 292.416 199.647V185.705C292.415 185.274 292.246 184.86 291.947 184.555C291.648 184.25 291.243 184.078 290.82 184.077Z" fill="#202020"/>
<path d="M290.82 207.846H277.159C276.949 207.845 276.742 207.887 276.548 207.969C276.354 208.05 276.178 208.17 276.03 208.322C275.881 208.473 275.764 208.653 275.684 208.85C275.604 209.048 275.563 209.26 275.563 209.474V223.416C275.563 223.63 275.604 223.842 275.684 224.04C275.764 224.238 275.881 224.417 276.03 224.569C276.178 224.72 276.354 224.84 276.548 224.922C276.742 225.003 276.949 225.045 277.159 225.045H290.82C291.244 225.044 291.649 224.873 291.949 224.567C292.248 224.262 292.416 223.848 292.416 223.416V209.474C292.416 209.042 292.248 208.628 291.949 208.323C291.649 208.018 291.244 207.846 290.82 207.846Z" fill="#6E6E6E"/>
<path d="M319.518 112.77H305.857C305.434 112.77 305.028 112.941 304.729 113.247C304.43 113.552 304.261 113.966 304.261 114.398V128.346C304.261 128.56 304.303 128.771 304.383 128.968C304.464 129.165 304.581 129.344 304.729 129.495C304.878 129.646 305.053 129.765 305.247 129.846C305.44 129.927 305.648 129.969 305.857 129.968H319.518C319.941 129.969 320.346 129.798 320.645 129.494C320.944 129.19 321.113 128.777 321.114 128.346V114.398C321.113 113.966 320.944 113.553 320.645 113.248C320.346 112.943 319.941 112.771 319.518 112.77Z" fill="#202020"/>
<path d="M319.518 136.539H305.857C305.434 136.539 305.028 136.71 304.729 137.016C304.43 137.321 304.261 137.735 304.261 138.167V152.115C304.261 152.329 304.303 152.54 304.383 152.737C304.464 152.934 304.581 153.113 304.729 153.264C304.878 153.415 305.053 153.534 305.247 153.615C305.44 153.697 305.648 153.738 305.857 153.737H319.518C319.941 153.738 320.346 153.567 320.645 153.263C320.944 152.959 321.113 152.546 321.114 152.115V138.167C321.113 137.736 320.944 137.322 320.645 137.017C320.346 136.712 319.941 136.54 319.518 136.539Z" fill="#202020"/>
<path d="M319.518 160.308H305.857C305.434 160.308 305.028 160.479 304.729 160.785C304.43 161.09 304.261 161.504 304.261 161.936V175.878C304.261 176.092 304.302 176.304 304.382 176.502C304.462 176.7 304.579 176.879 304.728 177.03C304.876 177.182 305.052 177.302 305.246 177.383C305.44 177.465 305.647 177.507 305.857 177.506H319.518C319.942 177.506 320.347 177.335 320.647 177.029C320.946 176.724 321.114 176.31 321.114 175.878V161.936C321.113 161.505 320.944 161.091 320.645 160.786C320.346 160.481 319.941 160.309 319.518 160.308Z" fill="#6E6E6E"/>
<path d="M319.518 184.077H305.857C305.434 184.077 305.028 184.248 304.729 184.554C304.43 184.859 304.261 185.273 304.261 185.705V199.647C304.261 199.861 304.302 200.073 304.382 200.271C304.462 200.468 304.579 200.648 304.728 200.799C304.876 200.951 305.052 201.071 305.246 201.152C305.44 201.234 305.647 201.276 305.857 201.275H319.518C319.942 201.275 320.347 201.104 320.647 200.798C320.946 200.493 321.114 200.079 321.114 199.647V185.705C321.113 185.274 320.944 184.86 320.645 184.555C320.346 184.25 319.941 184.078 319.518 184.077Z" fill="#202020"/>
<path d="M319.518 207.846H305.857C305.647 207.845 305.44 207.887 305.246 207.969C305.052 208.05 304.876 208.17 304.728 208.322C304.579 208.473 304.462 208.653 304.382 208.85C304.302 209.048 304.261 209.26 304.261 209.474V223.416C304.261 223.63 304.302 223.842 304.382 224.04C304.462 224.238 304.579 224.417 304.728 224.569C304.876 224.72 305.052 224.84 305.246 224.922C305.44 225.003 305.647 225.045 305.857 225.045H319.518C319.942 225.044 320.347 224.873 320.647 224.567C320.946 224.262 321.114 223.848 321.114 223.416V209.474C321.114 209.042 320.946 208.628 320.647 208.323C320.347 208.018 319.942 207.846 319.518 207.846Z" fill="#202020"/>
<path d="M348.216 112.77H334.555C334.132 112.77 333.726 112.941 333.427 113.247C333.127 113.552 332.959 113.966 332.959 114.398V128.346C332.959 128.56 333.001 128.771 333.081 128.968C333.161 129.165 333.279 129.344 333.427 129.495C333.576 129.646 333.751 129.765 333.945 129.846C334.138 129.927 334.346 129.969 334.555 129.968H348.216C348.639 129.969 349.044 129.798 349.343 129.494C349.642 129.19 349.811 128.777 349.812 128.346V114.398C349.811 113.966 349.642 113.553 349.343 113.248C349.044 112.943 348.639 112.771 348.216 112.77Z" fill="#202020"/>
<path d="M348.216 136.539H334.555C334.132 136.539 333.726 136.71 333.427 137.016C333.127 137.321 332.959 137.735 332.959 138.167V152.115C332.959 152.329 333.001 152.54 333.081 152.737C333.161 152.934 333.279 153.113 333.427 153.264C333.576 153.415 333.751 153.534 333.945 153.615C334.138 153.697 334.346 153.738 334.555 153.737H348.216C348.639 153.738 349.044 153.567 349.343 153.263C349.642 152.959 349.811 152.546 349.812 152.115V138.167C349.811 137.736 349.642 137.322 349.343 137.017C349.044 136.712 348.639 136.54 348.216 136.539Z" fill="#333333"/>
<path d="M348.216 160.308H334.555C334.132 160.308 333.726 160.479 333.427 160.785C333.127 161.09 332.959 161.504 332.959 161.936V175.878C332.959 176.092 333 176.304 333.08 176.502C333.16 176.7 333.277 176.879 333.426 177.03C333.574 177.182 333.75 177.302 333.944 177.383C334.137 177.465 334.345 177.507 334.555 177.506H348.216C348.64 177.506 349.045 177.335 349.345 177.029C349.644 176.724 349.812 176.31 349.812 175.878V161.936C349.811 161.505 349.642 161.091 349.343 160.786C349.044 160.481 348.639 160.309 348.216 160.308Z" fill="#333333"/>
<path d="M348.216 184.077H334.555C334.132 184.077 333.726 184.248 333.427 184.554C333.127 184.859 332.959 185.273 332.959 185.705V199.647C332.959 199.861 333 200.073 333.08 200.271C333.16 200.468 333.277 200.648 333.426 200.799C333.574 200.951 333.75 201.071 333.944 201.152C334.137 201.234 334.345 201.276 334.555 201.275H348.216C348.64 201.275 349.045 201.104 349.345 200.798C349.644 200.493 349.812 200.079 349.812 199.647V185.705C349.811 185.274 349.642 184.86 349.343 184.555C349.044 184.25 348.639 184.078 348.216 184.077Z" fill="#6E6E6E"/>
<path d="M348.216 207.846H334.555C334.345 207.845 334.137 207.887 333.944 207.969C333.75 208.05 333.574 208.17 333.426 208.322C333.277 208.473 333.16 208.653 333.08 208.85C333 209.048 332.959 209.26 332.959 209.474V223.416C332.959 223.63 333 223.842 333.08 224.04C333.16 224.238 333.277 224.417 333.426 224.569C333.574 224.72 333.75 224.84 333.944 224.922C334.137 225.003 334.345 225.045 334.555 225.045H348.216C348.64 225.044 349.045 224.873 349.345 224.567C349.644 224.262 349.812 223.848 349.812 223.416V209.474C349.812 209.042 349.644 208.628 349.345 208.323C349.045 208.018 348.64 207.846 348.216 207.846Z" fill="#202020"/>
<path d="M376.914 112.77H363.247C362.825 112.771 362.42 112.943 362.122 113.248C361.824 113.554 361.657 113.967 361.657 114.398V128.346C361.657 128.776 361.825 129.189 362.123 129.493C362.421 129.797 362.825 129.968 363.247 129.968H376.914C377.337 129.969 377.742 129.798 378.041 129.494C378.34 129.19 378.509 128.777 378.51 128.346V114.398C378.509 113.966 378.34 113.553 378.041 113.248C377.742 112.943 377.337 112.771 376.914 112.77Z" fill="#333333"/>
<path d="M376.914 136.539H363.247C362.824 136.54 362.42 136.712 362.122 137.018C361.824 137.323 361.657 137.736 361.657 138.167V152.115C361.657 152.545 361.825 152.958 362.123 153.262C362.421 153.566 362.825 153.737 363.247 153.737H376.914C377.337 153.738 377.742 153.567 378.041 153.263C378.34 152.959 378.509 152.546 378.51 152.115V138.167C378.509 137.736 378.34 137.322 378.041 137.017C377.742 136.712 377.337 136.54 376.914 136.539Z" fill="#333333"/>
<path d="M376.914 160.308H363.247C362.824 160.309 362.42 160.481 362.122 160.787C361.824 161.092 361.657 161.505 361.657 161.936V175.878C361.657 176.092 361.697 176.303 361.777 176.501C361.856 176.698 361.973 176.877 362.121 177.029C362.269 177.18 362.444 177.3 362.637 177.382C362.83 177.464 363.037 177.506 363.247 177.506H376.914C377.338 177.506 377.743 177.335 378.043 177.029C378.342 176.724 378.51 176.31 378.51 175.878V161.936C378.509 161.505 378.34 161.091 378.041 160.786C377.742 160.481 377.337 160.309 376.914 160.308Z" fill="#333333"/>
<path d="M376.914 184.077H363.247C362.824 184.078 362.42 184.25 362.122 184.556C361.824 184.861 361.657 185.274 361.657 185.705V199.647C361.657 199.861 361.697 200.072 361.777 200.269C361.856 200.467 361.973 200.646 362.121 200.798C362.269 200.949 362.444 201.069 362.637 201.151C362.83 201.233 363.037 201.275 363.247 201.275H376.914C377.338 201.275 377.743 201.104 378.043 200.798C378.342 200.493 378.51 200.079 378.51 199.647V185.705C378.509 185.274 378.34 184.86 378.041 184.555C377.742 184.25 377.337 184.078 376.914 184.077Z" fill="#202020"/>
<path d="M376.914 207.846H363.247C363.037 207.846 362.83 207.888 362.637 207.97C362.444 208.052 362.269 208.172 362.121 208.324C361.973 208.475 361.856 208.654 361.777 208.852C361.697 209.049 361.657 209.261 361.657 209.474V223.416C361.657 223.63 361.697 223.841 361.777 224.039C361.856 224.236 361.973 224.416 362.121 224.567C362.269 224.718 362.444 224.838 362.637 224.92C362.83 225.002 363.037 225.044 363.247 225.045H376.914C377.338 225.044 377.743 224.873 378.043 224.567C378.342 224.262 378.51 223.848 378.51 223.416V209.474C378.51 209.042 378.342 208.628 378.043 208.323C377.743 208.018 377.338 207.846 376.914 207.846Z" fill="#6E6E6E"/>
<path d="M405.612 112.77H391.945C391.522 112.771 391.118 112.943 390.82 113.248C390.522 113.554 390.355 113.967 390.355 114.398V128.346C390.355 128.776 390.523 129.189 390.821 129.493C391.119 129.797 391.523 129.968 391.945 129.968H405.612C406.035 129.969 406.44 129.798 406.739 129.494C407.038 129.19 407.207 128.777 407.208 128.346V114.398C407.207 113.966 407.038 113.553 406.739 113.248C406.44 112.943 406.035 112.771 405.612 112.77Z" fill="#333333"/>
<path d="M405.612 136.539H391.945C391.522 136.54 391.118 136.712 390.82 137.018C390.522 137.323 390.355 137.736 390.355 138.167V152.115C390.355 152.545 390.523 152.958 390.821 153.262C391.119 153.566 391.523 153.737 391.945 153.737H405.612C406.035 153.738 406.44 153.567 406.739 153.263C407.038 152.959 407.207 152.546 407.208 152.115V138.167C407.207 137.736 407.038 137.322 406.739 137.017C406.44 136.712 406.035 136.54 405.612 136.539Z" fill="#333333"/>
<path d="M405.612 160.308H391.945C391.522 160.309 391.118 160.481 390.82 160.787C390.522 161.092 390.355 161.505 390.355 161.936V175.878C390.354 176.092 390.395 176.303 390.475 176.501C390.554 176.698 390.671 176.877 390.819 177.029C390.967 177.18 391.142 177.3 391.335 177.382C391.528 177.464 391.735 177.506 391.945 177.506H405.612C406.036 177.506 406.441 177.335 406.74 177.029C407.04 176.724 407.208 176.31 407.208 175.878V161.936C407.207 161.505 407.038 161.091 406.739 160.786C406.44 160.481 406.035 160.309 405.612 160.308Z" fill="#202020"/>
<path d="M405.612 184.077H391.945C391.522 184.078 391.118 184.25 390.82 184.556C390.522 184.861 390.355 185.274 390.355 185.705V199.647C390.354 199.861 390.395 200.072 390.475 200.269C390.554 200.467 390.671 200.646 390.819 200.798C390.967 200.949 391.142 201.069 391.335 201.151C391.528 201.233 391.735 201.275 391.945 201.275H405.612C406.036 201.275 406.441 201.104 406.741 200.798C407.04 200.493 407.208 200.079 407.208 199.647V185.705C407.207 185.274 407.038 184.86 406.739 184.555C406.44 184.25 406.035 184.078 405.612 184.077Z" fill="#6E6E6E"/>
<path d="M405.612 207.846H391.945C391.735 207.846 391.528 207.888 391.335 207.97C391.142 208.052 390.967 208.172 390.819 208.324C390.671 208.475 390.554 208.654 390.475 208.852C390.395 209.049 390.354 209.261 390.355 209.474V223.416C390.354 223.63 390.395 223.841 390.475 224.039C390.554 224.236 390.671 224.416 390.819 224.567C390.967 224.718 391.142 224.838 391.335 224.92C391.528 225.002 391.735 225.044 391.945 225.045H405.612C406.036 225.044 406.441 224.873 406.741 224.567C407.04 224.262 407.208 223.848 407.208 223.416V209.474C407.208 209.042 407.04 208.628 406.741 208.323C406.441 208.018 406.036 207.846 405.612 207.846Z" fill="#333333"/>
<path d="M434.31 112.77H420.643C420.22 112.771 419.816 112.943 419.518 113.248C419.22 113.554 419.053 113.967 419.053 114.398V128.346C419.053 128.776 419.221 129.189 419.519 129.493C419.817 129.797 420.221 129.968 420.643 129.968H434.31C434.733 129.969 435.138 129.798 435.437 129.494C435.736 129.19 435.905 128.777 435.906 128.346V114.398C435.905 113.966 435.736 113.553 435.437 113.248C435.138 112.943 434.733 112.771 434.31 112.77Z" fill="#202020"/>
<path d="M434.31 136.539H420.643C420.22 136.54 419.816 136.712 419.518 137.018C419.22 137.323 419.053 137.736 419.053 138.167V152.115C419.053 152.545 419.221 152.958 419.519 153.262C419.817 153.566 420.221 153.737 420.643 153.737H434.31C434.733 153.738 435.138 153.567 435.437 153.263C435.736 152.959 435.905 152.546 435.906 152.115V138.167C435.905 137.736 435.736 137.322 435.437 137.017C435.138 136.712 434.733 136.54 434.31 136.539Z" fill="#202020"/>
<path d="M434.31 160.308H420.643C420.22 160.309 419.816 160.481 419.518 160.787C419.22 161.092 419.053 161.505 419.053 161.936V175.878C419.052 176.092 419.093 176.303 419.173 176.501C419.252 176.698 419.369 176.877 419.517 177.029C419.665 177.18 419.84 177.3 420.033 177.382C420.226 177.464 420.433 177.506 420.643 177.506H434.31C434.734 177.506 435.139 177.335 435.438 177.029C435.738 176.724 435.906 176.31 435.906 175.878V161.936C435.905 161.505 435.736 161.091 435.437 160.786C435.138 160.481 434.733 160.309 434.31 160.308Z" fill="#6E6E6E"/>
<path d="M434.31 184.077H420.643C420.22 184.078 419.816 184.25 419.518 184.556C419.22 184.861 419.053 185.274 419.053 185.705V199.647C419.052 199.861 419.093 200.072 419.173 200.269C419.252 200.467 419.369 200.646 419.517 200.798C419.665 200.949 419.84 201.069 420.033 201.151C420.226 201.233 420.433 201.275 420.643 201.275H434.31C434.734 201.275 435.139 201.104 435.439 200.798C435.738 200.493 435.906 200.079 435.906 199.647V185.705C435.905 185.274 435.736 184.86 435.437 184.555C435.138 184.25 434.733 184.078 434.31 184.077Z" fill="#333333"/>
<path d="M434.31 207.846H420.643C420.433 207.846 420.226 207.888 420.033 207.97C419.84 208.052 419.665 208.172 419.517 208.324C419.369 208.475 419.252 208.654 419.173 208.852C419.093 209.049 419.052 209.261 419.053 209.474V223.416C419.052 223.63 419.093 223.841 419.173 224.039C419.252 224.236 419.369 224.416 419.517 224.567C419.665 224.718 419.84 224.838 420.033 224.92C420.226 225.002 420.433 225.044 420.643 225.045H434.31C434.734 225.044 435.139 224.873 435.439 224.567C435.738 224.262 435.906 223.848 435.906 223.416V209.474C435.906 209.042 435.738 208.628 435.439 208.323C435.139 208.018 434.734 207.846 434.31 207.846Z" fill="#202020"/>
<path d="M463.008 112.77H449.341C448.918 112.771 448.514 112.943 448.216 113.248C447.918 113.554 447.751 113.967 447.751 114.398V128.346C447.751 128.776 447.919 129.189 448.217 129.493C448.515 129.797 448.919 129.968 449.341 129.968H463.008C463.431 129.969 463.836 129.798 464.135 129.494C464.434 129.19 464.603 128.777 464.604 128.346V114.398C464.603 113.966 464.434 113.553 464.135 113.248C463.836 112.943 463.431 112.771 463.008 112.77Z" fill="#202020"/>
<path d="M463.008 136.539H449.341C448.918 136.54 448.514 136.712 448.216 137.018C447.918 137.323 447.751 137.736 447.751 138.167V152.115C447.751 152.545 447.919 152.958 448.217 153.262C448.515 153.566 448.919 153.737 449.341 153.737H463.008C463.431 153.738 463.836 153.567 464.135 153.263C464.434 152.959 464.603 152.546 464.604 152.115V138.167C464.603 137.736 464.434 137.322 464.135 137.017C463.836 136.712 463.431 136.54 463.008 136.539Z" fill="#202020"/>
<path d="M463.008 160.308H449.341C448.918 160.309 448.514 160.481 448.216 160.787C447.918 161.092 447.751 161.505 447.751 161.936V175.878C447.75 176.092 447.791 176.303 447.871 176.501C447.95 176.698 448.067 176.877 448.215 177.029C448.363 177.18 448.538 177.3 448.731 177.382C448.924 177.464 449.131 177.506 449.341 177.506H463.008C463.432 177.506 463.837 177.335 464.136 177.029C464.436 176.724 464.604 176.31 464.604 175.878V161.936C464.603 161.505 464.434 161.091 464.135 160.786C463.836 160.481 463.431 160.309 463.008 160.308Z" fill="#6E6E6E"/>
<path d="M463.008 184.077H449.341C448.918 184.078 448.514 184.25 448.216 184.556C447.918 184.861 447.751 185.274 447.751 185.705V199.647C447.75 199.861 447.791 200.072 447.871 200.269C447.95 200.467 448.067 200.646 448.215 200.798C448.363 200.949 448.538 201.069 448.731 201.151C448.924 201.233 449.131 201.275 449.341 201.275H463.008C463.432 201.275 463.837 201.104 464.136 200.798C464.436 200.493 464.604 200.079 464.604 199.647V185.705C464.603 185.274 464.434 184.86 464.135 184.555C463.836 184.25 463.431 184.078 463.008 184.077Z" fill="#202020"/>
<path d="M463.008 207.846H449.341C449.131 207.846 448.924 207.888 448.731 207.97C448.538 208.052 448.363 208.172 448.215 208.324C448.067 208.475 447.95 208.654 447.871 208.852C447.791 209.049 447.75 209.261 447.751 209.474V223.416C447.75 223.63 447.791 223.841 447.871 224.039C447.95 224.236 448.067 224.416 448.215 224.567C448.363 224.718 448.538 224.838 448.731 224.92C448.924 225.002 449.131 225.044 449.341 225.045H463.008C463.432 225.044 463.837 224.873 464.136 224.567C464.436 224.262 464.604 223.848 464.604 223.416V209.474C464.604 209.042 464.436 208.628 464.136 208.323C463.837 208.018 463.432 207.846 463.008 207.846Z" fill="#202020"/>
<path d="M491.706 112.77H478.039C477.616 112.771 477.212 112.943 476.914 113.248C476.616 113.554 476.449 113.967 476.449 114.398V128.346C476.449 128.776 476.617 129.189 476.915 129.493C477.213 129.797 477.617 129.968 478.039 129.968H491.706C492.128 129.969 492.533 129.798 492.833 129.494C493.132 129.19 493.3 128.777 493.302 128.346V114.398C493.301 113.966 493.132 113.553 492.833 113.248C492.534 112.943 492.129 112.771 491.706 112.77Z" fill="#6E6E6E"/>
<path d="M491.706 136.539H478.039C477.616 136.54 477.212 136.712 476.914 137.018C476.616 137.323 476.449 137.736 476.449 138.167V152.115C476.449 152.545 476.617 152.958 476.915 153.262C477.213 153.566 477.617 153.737 478.039 153.737H491.706C492.128 153.738 492.533 153.567 492.833 153.263C493.132 152.959 493.3 152.546 493.302 152.115V138.167C493.301 137.736 493.132 137.322 492.833 137.017C492.534 136.712 492.129 136.54 491.706 136.539Z" fill="#202020"/>
<path d="M491.706 160.308H478.039C477.616 160.309 477.212 160.481 476.914 160.787C476.616 161.092 476.449 161.505 476.449 161.936V175.878C476.448 176.092 476.489 176.303 476.569 176.501C476.648 176.698 476.765 176.877 476.913 177.029C477.061 177.18 477.236 177.3 477.429 177.382C477.622 177.464 477.829 177.506 478.039 177.506H491.706C492.129 177.506 492.535 177.335 492.834 177.029C493.134 176.724 493.302 176.31 493.302 175.878V161.936C493.301 161.505 493.132 161.091 492.833 160.786C492.534 160.481 492.129 160.309 491.706 160.308Z" fill="#202020"/>
<path d="M491.706 184.077H478.039C477.616 184.078 477.212 184.25 476.914 184.556C476.616 184.861 476.449 185.274 476.449 185.705V199.647C476.448 199.861 476.489 200.072 476.569 200.269C476.648 200.467 476.765 200.646 476.913 200.798C477.061 200.949 477.236 201.069 477.429 201.151C477.622 201.233 477.829 201.275 478.039 201.275H491.706C492.129 201.275 492.535 201.104 492.834 200.798C493.134 200.493 493.302 200.079 493.302 199.647V185.705C493.301 185.274 493.132 184.86 492.833 184.555C492.534 184.25 492.129 184.078 491.706 184.077Z" fill="#202020"/>
<path d="M491.706 207.846H478.039C477.829 207.846 477.622 207.888 477.429 207.97C477.236 208.052 477.061 208.172 476.913 208.324C476.765 208.475 476.648 208.654 476.569 208.852C476.489 209.049 476.448 209.261 476.449 209.474V223.416C476.448 223.63 476.489 223.841 476.569 224.039C476.648 224.236 476.765 224.416 476.913 224.567C477.061 224.718 477.236 224.838 477.429 224.92C477.622 225.002 477.829 225.044 478.039 225.045H491.706C492.129 225.044 492.535 224.873 492.834 224.567C493.134 224.262 493.302 223.848 493.302 223.416V209.474C493.302 209.042 493.134 208.628 492.834 208.323C492.535 208.018 492.129 207.846 491.706 207.846Z" fill="#6E6E6E"/>
<path d="M520.404 112.77H506.736C506.314 112.771 505.91 112.943 505.612 113.248C505.314 113.554 505.147 113.967 505.147 114.398V128.346C505.147 128.776 505.314 129.189 505.613 129.493C505.911 129.797 506.315 129.968 506.736 129.968H520.404C520.826 129.969 521.232 129.798 521.531 129.494C521.83 129.19 521.998 128.777 522 128.346V114.398C521.999 113.966 521.83 113.553 521.531 113.248C521.232 112.943 520.827 112.771 520.404 112.77Z" fill="#6E6E6E"/>
<path d="M520.404 136.539H506.736C506.314 136.54 505.91 136.712 505.612 137.018C505.314 137.323 505.147 137.736 505.147 138.167V152.115C505.147 152.545 505.314 152.958 505.613 153.262C505.911 153.566 506.315 153.737 506.736 153.737H520.404C520.826 153.738 521.232 153.567 521.531 153.263C521.83 152.959 521.998 152.546 522 152.115V138.167C521.999 137.736 521.83 137.322 521.531 137.017C521.232 136.712 520.827 136.54 520.404 136.539Z" fill="#6E6E6E"/>
<path d="M520.404 160.308H506.736C506.314 160.309 505.91 160.481 505.612 160.787C505.314 161.092 505.147 161.505 505.147 161.936V175.878C505.146 176.092 505.187 176.303 505.267 176.501C505.346 176.698 505.463 176.877 505.611 177.029C505.758 177.18 505.934 177.3 506.127 177.382C506.32 177.464 506.527 177.506 506.736 177.506H520.404C520.827 177.506 521.233 177.335 521.532 177.029C521.832 176.724 522 176.31 522 175.878V161.936C521.999 161.505 521.83 161.091 521.531 160.786C521.232 160.481 520.827 160.309 520.404 160.308Z" fill="#202020"/>
<path d="M520.404 184.077H506.736C506.314 184.078 505.91 184.25 505.612 184.556C505.314 184.861 505.147 185.274 505.147 185.705V199.647C505.146 199.861 505.187 200.072 505.267 200.269C505.346 200.467 505.463 200.646 505.611 200.798C505.758 200.949 505.934 201.069 506.127 201.151C506.32 201.233 506.527 201.275 506.736 201.275H520.404C520.827 201.275 521.233 201.104 521.532 200.798C521.832 200.493 522 200.079 522 199.647V185.705C521.999 185.274 521.83 184.86 521.531 184.555C521.232 184.25 520.827 184.078 520.404 184.077Z" fill="#6E6E6E"/>
<path d="M520.404 207.846H506.736C506.527 207.846 506.32 207.888 506.127 207.97C505.934 208.052 505.758 208.172 505.611 208.324C505.463 208.475 505.346 208.654 505.267 208.852C505.187 209.049 505.146 209.261 505.147 209.474V223.416C505.146 223.63 505.187 223.841 505.267 224.039C505.346 224.236 505.463 224.416 505.611 224.567C505.758 224.718 505.934 224.838 506.127 224.92C506.32 225.002 506.527 225.044 506.736 225.045H520.404C520.827 225.044 521.233 224.873 521.532 224.567C521.832 224.262 522 223.848 522 223.416V209.474C522 209.042 521.832 208.628 521.532 208.323C521.233 208.018 520.827 207.846 520.404 207.846Z" fill="#6E6E6E"/>
<path d="M206.271 413.406H205.891L206.216 413.363L206.271 413.406Z" fill="#2F2E41"/>
<path d="M173.571 153.484C196.729 153.484 215.503 134.325 215.503 110.692C215.503 87.059 196.729 67.9005 173.571 67.9005C150.414 67.9005 131.64 87.059 131.64 110.692C131.64 134.325 150.414 153.484 173.571 153.484Z" fill="#FFB6B6"/>
<path d="M210.292 79.318C210.292 79.318 221.259 57.9222 197.131 55.9771C197.131 55.9771 176.562 36.9354 155.597 52.496C155.597 52.496 144.161 52.496 137.907 65.7025C137.907 65.7025 128.913 62.2214 126.937 71.5377C126.937 71.5377 120.355 90.9885 126.937 108.494C133.518 126 135.704 127.945 135.704 127.945C135.704 127.945 124.889 91.2433 151.213 89.2982C177.536 87.3531 206.993 70.5652 209.186 91.961C211.38 113.357 214.681 118.629 214.681 118.629C214.681 118.629 235.517 88.0709 210.292 79.318Z" fill="#2F2E41"/>
<path d="M282.038 216.151L281.903 216.877L280.387 225.045L269.911 281.539L269.291 284.865L267.99 291.899L266.21 301.494L262.264 322.758L261.134 328.852L260.711 331.138L260.564 331.939L259.391 338.247L259.035 340.151L256.175 361.778L253.678 380.624L262.037 389.154L257.053 394.24L253.782 413.362L253.788 413.406H120.284C114.883 409.835 109.56 406.155 104.314 402.363L105.413 393.971C105.413 393.971 109.193 378.983 107.604 377.191C106.021 375.4 102.547 372.2 102.547 372.2L106.923 361.778L107.53 360.331L106.511 338.766L106.487 338.247L106.149 331.138L106.106 330.223L106.039 328.852L104.744 301.494L104.719 301.043L104.327 292.75L103.958 284.865L103.799 281.539L102.222 248.262L101.154 225.665L100.221 205.992L103.971 204.695L144.078 190.785L160.691 168.744L195.269 169.007L212.196 169.139L240.439 195.87L246.865 199.002L246.914 199.027L251.523 201.275L263.209 206.969L275.563 212.994L281.903 216.082L282.038 216.151Z" fill="#CACACA"/>
<path d="M165.16 349.208C162.626 350.21 159.908 350.632 157.197 350.446C154.485 350.26 151.847 349.469 149.468 348.13C147.088 346.79 145.026 344.935 143.425 342.694C141.824 340.453 140.725 337.881 140.203 335.16L74.8051 325.691L97.5393 299.447L156.157 312.462C160.695 311.871 165.288 313 169.066 315.634C172.843 318.268 175.542 322.225 176.652 326.754C177.762 331.284 177.205 336.071 175.087 340.209C172.969 344.348 169.437 347.55 165.16 349.208V349.208Z" fill="#FFB6B6"/>
<path d="M136.001 301.494C134.79 299.926 133.075 298.846 131.159 298.444L104.327 292.75L101.571 292.168C99.9695 291.827 98.4567 291.144 97.1315 290.165C95.8063 289.186 94.6986 287.933 93.8809 286.487C93.0327 284.969 92.5195 283.28 92.3773 281.539C92.2494 279.956 92.4351 278.362 92.9235 276.854L102.221 248.262L108.254 229.711C108.986 227.473 109.417 225.145 109.537 222.79C109.873 216.271 107.897 209.848 103.971 204.695C100.519 200.166 95.7306 196.891 90.3142 195.352C84.8977 193.814 79.14 194.094 73.8917 196.152C73.7383 196.209 73.5787 196.271 73.4253 196.334C69.6615 197.867 66.2987 200.274 63.6028 203.362C60.9069 206.45 58.9518 210.136 57.8918 214.128L51.3372 238.46L37.8167 288.623C36.4633 293.649 36.1898 298.914 37.0151 304.057C37.8404 309.201 39.745 314.102 42.5985 318.425C45.4519 322.747 49.1869 326.39 53.5478 329.103C57.9087 331.816 62.7924 333.536 67.8649 334.144L106.511 338.766L124.395 340.908C126.463 341.162 128.549 340.611 130.237 339.366C131.925 338.12 133.091 336.271 133.503 334.188C133.532 334.074 133.555 333.959 133.571 333.843L134 331.138L137.64 308.352L137.677 308.12C137.866 306.957 137.815 305.767 137.527 304.626C137.238 303.485 136.718 302.418 136.001 301.494Z" fill="#CACACA"/>
<path d="M206.816 349.938C209.463 350.566 212.212 350.593 214.871 350.018C217.529 349.444 220.032 348.281 222.202 346.613C224.373 344.944 226.159 342.81 227.434 340.362C228.709 337.913 229.442 335.208 229.582 332.439L293.018 313.653L266.885 290.943L210.651 312.264C206.077 312.332 201.685 314.11 198.31 317.262C194.934 320.413 192.809 324.719 192.336 329.363C191.863 334.007 193.076 338.666 195.745 342.458C198.414 346.251 202.353 348.912 206.816 349.938V349.938Z" fill="#FFB6B6"/>
<path d="M324.514 271.631L294.343 200.768C291.875 194.95 287.468 190.213 281.903 187.396C280.183 186.532 278.376 185.86 276.514 185.392C276.226 185.317 275.938 185.248 275.649 185.191C271.701 184.312 267.607 184.39 263.694 185.417C260.117 186.355 256.774 188.052 253.882 190.397C250.991 192.742 248.617 195.682 246.914 199.027C246.896 199.055 246.879 199.084 246.865 199.115C244.963 202.869 243.952 207.027 243.913 211.253C243.873 215.48 244.807 219.657 246.638 223.447L247.013 224.212L268.333 267.91C269.062 269.404 269.472 271.039 269.537 272.706C269.603 274.374 269.322 276.037 268.713 277.586C268.105 279.135 267.182 280.535 266.006 281.694C264.83 282.854 263.427 283.746 261.889 284.314L260.392 284.865L233.461 294.792C231.441 295.528 229.778 297.035 228.825 298.997C227.871 300.958 227.701 303.221 228.349 305.308L228.417 305.527L235.965 330.179C236.002 330.292 236.039 330.405 236.082 330.518C236.148 330.73 236.23 330.938 236.327 331.138C237.13 332.974 238.548 334.458 240.326 335.322C242.105 336.187 244.128 336.375 246.03 335.854L260.564 331.939L263.528 331.138L301.057 321.023C305.996 319.691 310.593 317.286 314.536 313.972C318.479 310.659 321.673 306.515 323.901 301.824C326.129 297.134 327.337 292.007 327.443 286.796C327.548 281.584 326.549 276.411 324.514 271.63L324.514 271.631Z" fill="#CACACA"/>
<path d="M27.5552 331.138C36.252 341.963 45.6313 352.198 55.6333 361.778H333.021C335.693 361.782 338.255 362.868 340.144 364.797C342.033 366.726 343.095 369.341 343.098 372.068L343.497 443.801C360.561 435.8 376.542 425.584 391.042 413.406C395.069 410.03 398.97 406.508 402.746 402.839C405.22 400.447 407.634 397.996 409.988 395.486C427.641 376.719 441.936 354.94 452.225 331.138H27.5552Z" fill="#3F3D56"/>
<path d="M409.988 395.486C407.638 397.998 405.224 400.449 402.746 402.839H343.699V395.486H409.988Z" fill="#333333"/>
<path d="M281.486 160.308C281.194 159.758 280.762 159.299 280.236 158.98C279.71 158.66 279.109 158.491 278.497 158.491H77.2918C76.3898 158.494 75.5254 158.861 74.8881 159.512C74.2508 160.164 73.8925 161.047 73.8918 161.967V284.865H281.903V161.967C281.906 161.387 281.762 160.815 281.486 160.308Z" fill="#3F3D56"/>
<path d="M73.7096 281.538V296.703C73.7096 297.332 73.8309 297.955 74.0667 298.535C74.3024 299.116 74.648 299.644 75.0836 300.089C75.5192 300.533 76.0364 300.886 76.6055 301.126C77.1747 301.367 77.7847 301.491 78.4008 301.491H155.176V331.421H154.156C154.076 331.421 153.997 331.437 153.923 331.468C153.849 331.499 153.782 331.545 153.725 331.603C153.669 331.661 153.624 331.729 153.593 331.805C153.563 331.88 153.547 331.961 153.547 332.043V334.124C153.547 334.206 153.563 334.287 153.593 334.362C153.624 334.438 153.669 334.506 153.725 334.564C153.782 334.622 153.849 334.668 153.923 334.699C153.997 334.73 154.076 334.746 154.156 334.746H201.818C201.898 334.746 201.977 334.73 202.051 334.699C202.125 334.668 202.192 334.622 202.249 334.564C202.305 334.506 202.35 334.438 202.381 334.362C202.411 334.287 202.427 334.206 202.427 334.124V332.043C202.427 331.961 202.411 331.88 202.381 331.805C202.35 331.729 202.305 331.661 202.249 331.603C202.192 331.545 202.125 331.499 202.051 331.468C201.977 331.437 201.898 331.421 201.818 331.421H200.798V301.491H277.573C278.189 301.491 278.799 301.367 279.368 301.126C279.938 300.886 280.455 300.533 280.89 300.089C281.326 299.644 281.672 299.116 281.907 298.535C282.143 297.955 282.264 297.332 282.264 296.703V281.538H73.7096Z" fill="#3F3D56"/>
<path d="M175.467 238.01C186.078 238.01 194.681 229.231 194.681 218.402C194.681 207.573 186.078 198.794 175.467 198.794C164.856 198.794 156.253 207.573 156.253 218.402C156.253 229.231 164.856 238.01 175.467 238.01Z" fill="#202020"/>
<path d="M224.421 108.354H221.352C221.352 84.6789 198.393 69.1648 175.231 69.1523C171.862 69.1422 168.5 69.4758 165.196 70.1481C161.477 70.906 157.617 71.8141 153.824 72.9979C138.867 77.6765 124.997 86.7207 124.997 108.354C124.994 112.555 125.518 116.74 126.556 120.805L123.585 121.594C122.484 117.271 121.927 112.821 121.928 108.354C121.928 89.4514 129.532 76.4677 142.666 68.7264C149.571 64.6552 157.997 62.0309 167.651 60.7532C171.669 60.2078 175.73 60.0819 179.772 60.3774C206.408 62.3316 224.421 83.1757 224.421 108.354Z" fill="#202020"/>
<path d="M229.533 110.089L228.324 100.97C228.026 98.6666 226.939 96.5456 225.256 94.9819C224.175 93.9626 222.881 93.2073 221.473 92.7733C220.064 92.3393 218.577 92.2378 217.124 92.4766L215.203 92.7459C214.677 92.8166 214.171 92.993 213.712 93.265C213.254 93.537 212.853 93.8992 212.533 94.3305C212.21 94.7604 211.974 95.2513 211.838 95.7748C211.703 96.2984 211.67 96.8442 211.741 97.3808L214.534 118.388C214.649 119.244 215.025 120.041 215.609 120.668C216.193 121.294 216.954 121.717 217.787 121.876C218.033 121.927 218.284 121.952 218.535 121.951C218.716 121.951 218.897 121.939 219.076 121.914L221.224 121.62C222.533 121.442 223.794 120.993 224.927 120.301C226.061 119.608 227.043 118.687 227.815 117.592C227.981 117.354 228.14 117.11 228.288 116.859C229.438 114.81 229.877 112.425 229.533 110.089Z" fill="#202020"/>
<path d="M213.963 93.1279C213.4 93.4073 212.91 93.8195 212.533 94.3305C212.21 94.7604 211.974 95.2512 211.838 95.7748C211.703 96.2983 211.67 96.8441 211.741 97.3807L214.534 118.388C214.649 119.244 215.025 120.041 215.609 120.667C216.193 121.294 216.954 121.716 217.787 121.876L213.963 93.1279Z" fill="#333333"/>
<path d="M229.533 110.089L228.324 100.97C228.026 98.6666 226.939 96.5456 225.256 94.9819L228.036 115.882C228.078 116.218 228.162 116.546 228.288 116.859C229.438 114.81 229.877 112.425 229.533 110.089Z" fill="#3F3D56"/>
<path d="M219.978 116.659C220.818 116.543 221.24 114.504 220.921 112.104C220.602 109.705 219.663 107.854 218.823 107.97C217.983 108.087 217.561 110.126 217.88 112.525C218.199 114.925 219.138 116.776 219.978 116.659Z" fill="#3F3D56"/>
<path d="M218.137 105.386C218.976 105.269 219.399 103.23 219.08 100.831C218.761 98.4312 217.821 96.5804 216.982 96.6966C216.142 96.8129 215.72 98.8522 216.039 101.252C216.358 103.651 217.297 105.502 218.137 105.386Z" fill="#3F3D56"/>
<path d="M229.798 109.77C230.637 109.654 231.059 107.614 230.74 105.215C230.422 102.815 229.482 100.965 228.643 101.081C227.803 101.197 227.381 103.236 227.7 105.636C228.019 108.035 228.958 109.886 229.798 109.77Z" fill="#3F3D56"/>
<path d="M175.231 69.1523C171.862 69.1422 168.5 69.4758 165.196 70.1481C161.477 70.906 157.617 71.8141 153.824 72.9979C147.901 72.7035 143.544 71.1377 142.666 68.7263C149.571 64.6552 157.997 62.0309 167.651 60.7532C171.669 60.2078 175.73 60.0819 179.772 60.3774C180.2 60.6335 180.57 60.979 180.858 61.3914C181.146 61.8037 181.345 62.2736 181.442 62.77C181.73 64.9496 179.294 67.267 175.231 69.1523Z" fill="#3F3D56"/>
<path d="M136.05 130.087L131.325 110.039C131.156 109.315 130.782 108.659 130.249 108.152C129.716 107.645 129.048 107.31 128.33 107.189C128.126 107.157 127.921 107.14 127.716 107.139C127.426 107.14 127.138 107.176 126.857 107.245L125.028 107.696C122.673 108.278 120.64 109.788 119.376 111.897C118.111 114.006 117.718 116.541 118.283 118.945L120.4 127.939C120.884 130.057 122.035 131.953 123.677 133.338C123.944 133.557 124.222 133.76 124.512 133.946C125.541 134.604 126.688 135.045 127.887 135.243C129.085 135.44 130.311 135.391 131.49 135.098L133.313 134.647C133.795 134.532 134.248 134.317 134.645 134.015C135.234 133.576 135.683 132.968 135.933 132.269C136.183 131.57 136.224 130.81 136.05 130.087Z" fill="#202020"/>
<path d="M126.143 126.357C126.967 126.155 127.185 124.082 126.63 121.728C126.075 119.374 124.957 117.63 124.133 117.832C123.309 118.034 123.091 120.107 123.646 122.461C124.202 124.815 125.319 126.559 126.143 126.357Z" fill="#3F3D56"/>
<path d="M120.006 128.236C120.83 128.034 121.048 125.961 120.493 123.607C119.937 121.253 118.82 119.509 117.996 119.711C117.172 119.913 116.954 121.986 117.509 124.34C118.064 126.694 119.182 128.438 120.006 128.236Z" fill="#3F3D56"/>
<path d="M136.351 130.012L131.625 109.964C131.441 109.181 131.035 108.471 130.457 107.923C129.88 107.375 129.157 107.013 128.379 106.882L134.829 134.265C135.466 133.789 135.951 133.131 136.221 132.374C136.492 131.617 136.537 130.795 136.351 130.012Z" fill="#333333"/>
<path d="M119.351 114.974C119.22 114.417 118.976 113.894 118.633 113.44C117.968 115.195 117.846 117.117 118.283 118.945L120.4 127.939C120.884 130.057 122.035 131.953 123.677 133.338L119.351 114.974Z" fill="#3F3D56"/>
</g>
<defs>
<clipPath id="clip0_15_133">
<rect width="522" height="464" fill="white"/>
</clipPath>
</defs>
</svg>
